<svg id="mano" xmlns="http://www.w3.org/2000/svg" viewBox="0 0 457.45 972.05"><defs><style>.cls-1,.cls-2{fill:none;stroke:#fff;stroke-miterlimit:10;}.cls-1{stroke-width:0.25px;}.cls-2{stroke-width:0.75px;}</style></defs><title>mano</title><ellipse class="cls-1" cx="951.69" cy="497.13" rx="8.24" ry="38.61" transform="translate(-609.62 1004.46) rotate(-63.31)"/><ellipse class="cls-1" cx="954.55" cy="488.28" rx="8.24" ry="38.61" transform="translate(-600.14 1002.14) rotate(-63.31)"/><ellipse class="cls-1" cx="958.3" cy="478.88" rx="8.24" ry="38.61" transform="translate(-589.67 1000.31) rotate(-63.31)"/><ellipse class="cls-1" cx="960.33" cy="468.86" rx="8.24" ry="38.61" transform="translate(-579.59 996.61) rotate(-63.31)"/><ellipse class="cls-1" cx="966.33" cy="458.71" rx="8.24" ry="38.61" transform="translate(-567.23 996.38) rotate(-63.31)"/><ellipse class="cls-1" cx="372.5" cy="803.36" rx="73.26" ry="14.65"/><ellipse class="cls-1" cx="374.81" cy="785.62" rx="73.26" ry="14.65"/><ellipse class="cls-1" cx="377.13" cy="767.88" rx="73.26" ry="14.65"/><ellipse class="cls-1" cx="379.44" cy="750.15" rx="73.26" ry="14.65"/><ellipse class="cls-1" cx="381.75" cy="732.41" rx="73.26" ry="14.65"/><ellipse class="cls-1" cx="384.07" cy="714.68" rx="73.26" ry="14.65"/><ellipse class="cls-1" cx="384.45" cy="696.94" rx="70.56" ry="14.65"/><ellipse class="cls-1" cx="385.61" cy="681.52" rx="65.55" ry="13.88"/><ellipse class="cls-1" cx="385.61" cy="662.24" rx="65.55" ry="14.65"/><ellipse class="cls-1" cx="384.07" cy="643.73" rx="62.46" ry="14.65"/><ellipse class="cls-1" cx="386.38" cy="625.22" rx="60.15" ry="14.65"/><ellipse class="cls-1" cx="384.84" cy="608.26" rx="60.15" ry="14.65"/><ellipse class="cls-1" cx="383.29" cy="588.98" rx="60.15" ry="16.97"/><ellipse class="cls-1" cx="383.29" cy="571.24" rx="60.15" ry="14.65"/><ellipse class="cls-1" cx="379.44" cy="552.74" rx="62.46" ry="14.65"/><ellipse class="cls-1" cx="367.1" cy="534.23" rx="73.26" ry="14.65"/><ellipse class="cls-1" cx="360.93" cy="518.81" rx="79.43" ry="14.65"/><ellipse class="cls-1" cx="352.45" cy="500.3" rx="87.91" ry="14.65"/><ellipse class="cls-1" cx="345.94" cy="483.67" rx="94.08" ry="14.65"/><ellipse class="cls-1" cx="336.26" cy="467.04" rx="104.1" ry="14.65"/><ellipse class="cls-1" cx="327.77" cy="450.42" rx="112.59" ry="14.65"/><ellipse class="cls-1" cx="320.83" cy="433.79" rx="119.53" ry="14.65"/><ellipse class="cls-1" cx="1003.48" cy="535.09" rx="126.53" ry="14.65" transform="translate(-703.06 -93.68) rotate(-1.47)"/><ellipse class="cls-1" cx="795.83" cy="380.2" rx="35.65" ry="7.81" transform="translate(-732.58 -12.15) rotate(-7.52)"/><ellipse class="cls-1" cx="802" cy="389.45" rx="35.65" ry="7.81" transform="translate(-733.74 -11.27) rotate(-7.52)"/><ellipse class="cls-1" cx="806.63" cy="400.25" rx="35.65" ry="7.81" transform="translate(-735.11 -10.57) rotate(-7.52)"/><ellipse class="cls-1" cx="812.8" cy="409.5" rx="35.65" ry="7.81" transform="translate(-736.27 -9.68) rotate(-7.52)"/><ellipse class="cls-1" cx="820.51" cy="418.75" rx="35.65" ry="7.81" transform="translate(-737.41 -8.59) rotate(-7.52)"/><ellipse class="cls-1" cx="825.13" cy="429.55" rx="35.65" ry="7.81" transform="translate(-738.79 -7.89) rotate(-7.52)"/><ellipse class="cls-1" cx="834.39" cy="438.8" rx="35.65" ry="7.81" transform="translate(-739.92 -6.6) rotate(-7.52)"/><ellipse class="cls-1" cx="368.42" cy="341.08" rx="43.73" ry="8.85"/><ellipse class="cls-1" cx="366.88" cy="331.82" rx="43.73" ry="8.85"/><ellipse class="cls-1" cx="364.57" cy="322.94" rx="41.42" ry="6.94"/><ellipse class="cls-1" cx="362.25" cy="313.68" rx="40.65" ry="6.94"/><ellipse class="cls-1" cx="359.94" cy="305.97" rx="38.34" ry="6.94"/><ellipse class="cls-1" cx="1044.91" cy="415.97" rx="36.83" ry="6.94" transform="translate(-710.47 -62.95) rotate(-3.08)"/><ellipse class="cls-1" cx="1041.79" cy="408.26" rx="36.88" ry="6.94" transform="translate(-710.06 -63.13) rotate(-3.08)"/><ellipse class="cls-1" cx="1038.7" cy="400.55" rx="36.88" ry="6.94" transform="translate(-709.65 -63.31) rotate(-3.08)"/><ellipse class="cls-1" cx="1034.73" cy="394.18" rx="37.75" ry="6.94" transform="matrix(1, -0.09, 0.09, 1, -722.36, -19.76)"/><ellipse class="cls-1" cx="1028.56" cy="386.47" rx="37.75" ry="6.94" transform="translate(-721.66 -20.38) rotate(-5.44)"/><ellipse class="cls-1" cx="1022.4" cy="378.91" rx="39.28" ry="6.94" transform="translate(-720.97 -21) rotate(-5.44)"/><ellipse class="cls-1" cx="1019.32" cy="371.19" rx="39.28" ry="6.94" transform="translate(-720.25 -21.32) rotate(-5.44)"/><ellipse class="cls-1" cx="1016.23" cy="363.48" rx="39.28" ry="6.94" transform="translate(-719.53 -21.65) rotate(-5.44)"/><ellipse class="cls-1" cx="1013.15" cy="354.23" rx="39.28" ry="6.94" transform="translate(-718.67 -21.98) rotate(-5.44)"/><ellipse class="cls-1" cx="1009.6" cy="346.56" rx="38.82" ry="6.94" transform="translate(-717.96 -22.35) rotate(-5.44)"/><ellipse class="cls-1" cx="1006.53" cy="339" rx="37.29" ry="6.94" transform="translate(-717.25 -22.68) rotate(-5.44)"/><ellipse class="cls-1" cx="1003.46" cy="331.43" rx="35.75" ry="6.94" transform="translate(-716.55 -23.01) rotate(-5.44)"/><ellipse class="cls-1" cx="1001.86" cy="323.87" rx="34.14" ry="6.94" transform="translate(-715.84 -23.19) rotate(-5.44)"/><ellipse class="cls-1" cx="998.8" cy="316.45" rx="31.07" ry="6.94" transform="translate(-715.15 -23.51) rotate(-5.44)"/><ellipse class="cls-1" cx="995.75" cy="310.57" rx="28" ry="6.94" transform="translate(-714.61 -23.83) rotate(-5.44)"/><ellipse class="cls-1" cx="991.91" cy="304.62" rx="25.7" ry="6.94" transform="translate(-714.06 -24.22) rotate(-5.44)"/><ellipse class="cls-1" cx="988.09" cy="298.82" rx="21.86" ry="6.94" transform="translate(-713.53 -24.61) rotate(-5.44)"/><ellipse class="cls-1" cx="986.43" cy="292.95" rx="18.64" ry="6.94" transform="translate(-712.98 -24.79) rotate(-5.44)"/><ellipse class="cls-1" cx="843.64" cy="448.06" rx="35.65" ry="7.81" transform="translate(-741.05 -5.31) rotate(-7.52)"/><ellipse class="cls-1" cx="848.27" cy="457.31" rx="35.65" ry="7.81" transform="translate(-742.22 -4.62) rotate(-7.52)"/><ellipse class="cls-1" cx="852.9" cy="466.56" rx="35.65" ry="7.81" transform="translate(-743.4 -3.94) rotate(-7.52)"/><ellipse class="cls-1" cx="859.06" cy="475.82" rx="35.65" ry="7.81" transform="translate(-744.55 -3.05) rotate(-7.52)"/><ellipse class="cls-1" cx="863.69" cy="485.07" rx="35.65" ry="7.81" transform="translate(-745.73 -2.36) rotate(-7.52)"/><ellipse class="cls-1" cx="789.66" cy="370.94" rx="35.65" ry="7.81" transform="translate(-731.42 -13.04) rotate(-7.52)"/><ellipse class="cls-1" cx="784.79" cy="360.38" rx="33.84" ry="7.81" transform="translate(-730.08 -13.77) rotate(-7.52)"/><ellipse class="cls-1" cx="781.63" cy="351.34" rx="32.21" ry="7.81" transform="translate(-728.92 -14.26) rotate(-7.52)"/><ellipse class="cls-1" cx="780.13" cy="340.64" rx="30.71" ry="7.81" transform="translate(-708.63 -72.35) rotate(-3.43)"/><ellipse class="cls-1" cx="776.91" cy="331.3" rx="29.3" ry="7.81" transform="translate(-708.08 -72.56) rotate(-3.43)"/><ellipse class="cls-1" cx="775.28" cy="322.14" rx="27.85" ry="7.81" transform="translate(-707.53 -72.67) rotate(-3.43)"/><ellipse class="cls-1" cx="774.67" cy="314.15" rx="26.99" ry="6.49" transform="translate(-707.06 -72.72) rotate(-3.43)"/><ellipse class="cls-1" cx="774.67" cy="304.9" rx="26.99" ry="6.49" transform="translate(-706.5 -72.74) rotate(-3.43)"/><ellipse class="cls-1" cx="774.63" cy="297.28" rx="25.4" ry="6.49" transform="translate(-706.05 -72.75) rotate(-3.43)"/><ellipse class="cls-1" cx="776.12" cy="289.48" rx="23.91" ry="6.49" transform="translate(-705.58 -72.68) rotate(-3.43)"/><ellipse class="cls-1" cx="775.28" cy="282.12" rx="21.6" ry="5.43" transform="translate(-705.14 -72.74) rotate(-3.43)"/><ellipse class="cls-1" cx="775.28" cy="274.41" rx="21.6" ry="5.43" transform="translate(-704.68 -72.76) rotate(-3.43)"/><ellipse class="cls-1" cx="775.28" cy="266.69" rx="21.6" ry="5.43" transform="translate(-704.22 -72.77) rotate(-3.43)"/><ellipse class="cls-1" cx="775.28" cy="258.98" rx="21.6" ry="5.43" transform="translate(-703.75 -72.78) rotate(-3.43)"/><ellipse class="cls-1" cx="775.28" cy="251.27" rx="21.6" ry="5.43" transform="translate(-703.29 -72.8) rotate(-3.43)"/><ellipse class="cls-1" cx="775.28" cy="243.56" rx="21.6" ry="5.43" transform="translate(-702.83 -72.81) rotate(-3.43)"/><ellipse class="cls-1" cx="775.28" cy="235.85" rx="21.6" ry="5.43" transform="translate(-702.37 -72.82) rotate(-3.43)"/><ellipse class="cls-1" cx="773.74" cy="228.14" rx="21.6" ry="5.43" transform="translate(-701.91 -72.93) rotate(-3.43)"/><ellipse class="cls-1" cx="772.97" cy="222.01" rx="20.83" ry="5.43" transform="translate(-701.55 -72.99) rotate(-3.43)"/><ellipse class="cls-1" cx="772.27" cy="215.44" rx="20.06" ry="4.34" transform="translate(-701.16 -73.04) rotate(-3.43)"/><ellipse class="cls-1" cx="771.45" cy="209.23" rx="19.34" ry="4.34" transform="translate(-700.78 -73.1) rotate(-3.43)"/><ellipse class="cls-1" cx="770.63" cy="204.56" rx="18.52" ry="4.34" transform="translate(-700.51 -73.16) rotate(-3.43)"/><ellipse class="cls-1" cx="769.32" cy="200.01" rx="17.21" ry="4.34" transform="translate(-700.24 -73.24) rotate(-3.43)"/><ellipse class="cls-1" cx="768.32" cy="195.44" rx="16.21" ry="4.34" transform="translate(-699.97 -73.31) rotate(-3.43)"/><ellipse class="cls-1" cx="766.79" cy="190.91" rx="14.67" ry="4.34" transform="translate(-699.7 -73.41) rotate(-3.43)"/><ellipse class="cls-1" cx="765.25" cy="186.37" rx="13.13" ry="4.34" transform="translate(-699.43 -73.51) rotate(-3.43)"/><ellipse class="cls-1" cx="763.76" cy="183.38" rx="11.64" ry="4.34" transform="translate(-699.25 -73.61) rotate(-3.43)"/><ellipse class="cls-2" cx="777.6" cy="149.54" rx="10.05" ry="4.34" transform="translate(-697.2 -72.84) rotate(-3.43)"/><ellipse class="cls-2" cx="781.63" cy="124.36" rx="7.79" ry="4.34" transform="translate(-695.69 -72.64) rotate(-3.43)"/><ellipse class="cls-2" cx="750.93" cy="157.28" rx="5.43" ry="3.31" transform="translate(-697.71 -74.42) rotate(-3.43)"/><ellipse class="cls-1" cx="868.21" cy="365.37" rx="7.81" ry="32.21" transform="translate(-258.95 1079.92) rotate(-85.15)"/><ellipse class="cls-1" cx="177.02" cy="254.99" rx="32.21" ry="7.81"/><ellipse class="cls-1" cx="177.02" cy="262.71" rx="32.21" ry="7.81"/><ellipse class="cls-1" cx="177.02" cy="273.5" rx="32.21" ry="7.81"/><ellipse class="cls-1" cx="178.56" cy="282.76" rx="32.21" ry="7.81"/><ellipse class="cls-1" cx="178.56" cy="292.01" rx="32.21" ry="7.81"/><ellipse class="cls-1" cx="180.1" cy="302.81" rx="32.21" ry="7.81"/><ellipse class="cls-1" cx="180" cy="312.06" rx="33.65" ry="7.81"/><ellipse class="cls-1" cx="181.54" cy="321.31" rx="33.65" ry="7.81"/><ellipse class="cls-1" cx="181.54" cy="330.57" rx="33.65" ry="7.81"/><ellipse class="cls-1" cx="181.54" cy="339.82" rx="33.65" ry="7.81"/><ellipse class="cls-1" cx="183.08" cy="350.62" rx="33.65" ry="7.81"/><ellipse class="cls-1" cx="869.04" cy="354.59" rx="7.81" ry="30.71" transform="matrix(0.16, -0.99, 0.99, 0.16, -306.04, 1038.28)"/><ellipse class="cls-1" cx="867.89" cy="344.78" rx="7.81" ry="29.3" transform="translate(-297.32 1028.86) rotate(-81.05)"/><ellipse class="cls-1" cx="868.27" cy="335.48" rx="7.81" ry="27.85" transform="translate(-287.82 1021.38) rotate(-81.05)"/><ellipse class="cls-1" cx="869.39" cy="327.55" rx="6.49" ry="26.99" transform="translate(-279.04 1015.79) rotate(-81.05)"/><ellipse class="cls-1" cx="871.37" cy="318.51" rx="6.49" ry="26.99" transform="translate(-268.43 1010.12) rotate(-81.05)"/><ellipse class="cls-1" cx="872.97" cy="311.06" rx="6.49" ry="25.4" transform="translate(-259.73 1005.4) rotate(-81.05)"/><ellipse class="cls-1" cx="873.01" cy="303.76" rx="6.49" ry="23.91" transform="translate(-252.48 999.28) rotate(-81.05)"/><ellipse class="cls-1" cx="873.76" cy="296.39" rx="5.43" ry="21.6" transform="translate(-244.56 993.8) rotate(-81.05)"/><ellipse class="cls-1" cx="875.42" cy="288.86" rx="5.43" ry="21.6" transform="translate(-235.73 989.07) rotate(-81.05)"/><ellipse class="cls-1" cx="877.07" cy="281.33" rx="5.43" ry="21.6" transform="translate(-226.89 984.34) rotate(-81.05)"/><ellipse class="cls-1" cx="877.18" cy="273.79" rx="5.43" ry="21.6" transform="translate(-219.36 978.09) rotate(-81.05)"/><ellipse class="cls-1" cx="878.83" cy="266.26" rx="5.43" ry="21.6" transform="translate(-210.52 973.36) rotate(-81.05)"/><ellipse class="cls-1" cx="878.94" cy="258.73" rx="5.43" ry="21.6" transform="translate(-202.99 967.11) rotate(-81.05)"/><ellipse class="cls-1" cx="879.05" cy="251.2" rx="5.43" ry="21.6" transform="translate(-195.45 960.86) rotate(-81.05)"/><ellipse class="cls-1" cx="879.2" cy="243.33" rx="5.43" ry="21.6" transform="translate(-187.56 954.37) rotate(-81.05)"/><ellipse class="cls-1" cx="879.76" cy="237.19" rx="5.43" ry="20.83" transform="translate(-181.02 949.73) rotate(-81.05)"/><ellipse class="cls-1" cx="880.48" cy="230.62" rx="4.34" ry="20.06" transform="translate(-173.91 944.9) rotate(-81.05)"/><ellipse class="cls-1" cx="879.47" cy="224.37" rx="4.34" ry="19.34" transform="translate(-168.6 938.62) rotate(-81.05)"/><ellipse class="cls-1" cx="879.67" cy="219.64" rx="4.34" ry="18.52" transform="translate(-163.75 934.82) rotate(-81.05)"/><ellipse class="cls-1" cx="880.91" cy="214.91" rx="4.34" ry="17.21" transform="translate(-158.04 932.06) rotate(-81.05)"/><ellipse class="cls-1" cx="880.92" cy="210.24" rx="4.34" ry="16.21" transform="translate(-153.42 928.11) rotate(-81.05)"/><ellipse class="cls-1" cx="881.93" cy="205.48" rx="4.34" ry="14.67" transform="translate(-147.86 925.1) rotate(-81.05)"/><ellipse class="cls-1" cx="882.94" cy="202.26" rx="4.34" ry="13.13" transform="translate(-143.83 923.38) rotate(-81.05)"/><ellipse class="cls-1" cx="883.67" cy="197.47" rx="4.34" ry="11.64" transform="translate(-138.48 920.06) rotate(-81.05)"/><ellipse class="cls-2" cx="923.4" cy="205.48" rx="4.34" ry="10.05" transform="translate(-112.84 966.06) rotate(-81.05)"/><ellipse class="cls-2" cx="930.15" cy="190.37" rx="4.34" ry="7.79" transform="translate(-92.22 959.97) rotate(-81.05)"/><ellipse class="cls-2" cx="990.88" cy="266.92" rx="3.31" ry="5.43" transform="translate(-116.56 1084.6) rotate(-81.05)"/><ellipse class="cls-1" cx="811.52" cy="386.29" rx="35.65" ry="7.81" transform="translate(-770.71 371.99) rotate(-32.18)"/><ellipse class="cls-1" cx="820.98" cy="392.12" rx="35.65" ry="7.81" transform="translate(-772.36 377.93) rotate(-32.18)"/><ellipse class="cls-1" cx="829.69" cy="400" rx="35.65" ry="7.81" transform="translate(-775.22 383.78) rotate(-32.18)"/><ellipse class="cls-1" cx="839.16" cy="405.84" rx="35.65" ry="7.81" transform="translate(-776.87 389.72) rotate(-32.18)"/><ellipse class="cls-1" cx="850.03" cy="411.03" rx="35.65" ry="7.81" transform="translate(-777.97 396.3) rotate(-32.18)"/><ellipse class="cls-1" cx="858.74" cy="418.91" rx="35.65" ry="7.81" transform="matrix(0.85, -0.53, 0.53, 0.85, -780.83, 402.15)"/><ellipse class="cls-1" cx="871.01" cy="423.46" rx="35.65" ry="7.81" transform="translate(-781.36 409.39) rotate(-32.18)"/><ellipse class="cls-1" cx="883.28" cy="428.01" rx="35.65" ry="7.81" transform="matrix(0.85, -0.53, 0.53, 0.85, -781.9, 416.62)"/><ellipse class="cls-1" cx="891.35" cy="434.49" rx="35.65" ry="7.81" transform="translate(-784.11 421.92) rotate(-32.18)"/><ellipse class="cls-1" cx="899.41" cy="440.97" rx="35.65" ry="7.81" transform="translate(-786.32 427.21) rotate(-32.18)"/><ellipse class="cls-1" cx="802.05" cy="380.45" rx="35.65" ry="7.81" transform="translate(-769.05 366.05) rotate(-32.18)"/><ellipse class="cls-1" cx="793.21" cy="372.89" rx="33.84" ry="7.81" transform="translate(-766.38 360.18) rotate(-32.18)"/><ellipse class="cls-1" cx="786.57" cy="365.99" rx="32.21" ry="7.81" transform="translate(-763.73 355.58) rotate(-32.18)"/><ellipse class="cls-1" cx="780.74" cy="356.89" rx="30.71" ry="7.81" transform="translate(-765.73 290.04) rotate(-28.09)"/><ellipse class="cls-1" cx="773.91" cy="349.75" rx="29.3" ry="7.81" transform="translate(-763.17 285.99) rotate(-28.09)"/><ellipse class="cls-1" cx="768.61" cy="342.11" rx="27.85" ry="7.81" transform="translate(-760.2 282.59) rotate(-28.09)"/><ellipse class="cls-1" cx="764.73" cy="335.09" rx="26.99" ry="6.49" transform="translate(-757.35 279.94) rotate(-28.09)"/><ellipse class="cls-1" cx="760.87" cy="326.68" rx="26.99" ry="6.49" transform="translate(-753.85 277.13) rotate(-28.09)"/><ellipse class="cls-1" cx="757.66" cy="319.78" rx="25.4" ry="6.49" transform="translate(-750.98 274.8) rotate(-28.09)"/><ellipse class="cls-1" cx="755.76" cy="312.07" rx="23.91" ry="6.49" transform="translate(-747.57 273) rotate(-28.09)"/><ellipse class="cls-1" cx="751.92" cy="305.73" rx="21.6" ry="5.43" transform="translate(-745.04 270.45) rotate(-28.09)"/><ellipse class="cls-1" cx="748.7" cy="298.72" rx="21.6" ry="5.43" transform="translate(-742.11 268.1) rotate(-28.09)"/><ellipse class="cls-1" cx="745.48" cy="291.71" rx="21.6" ry="5.43" transform="translate(-739.19 265.76) rotate(-28.09)"/><ellipse class="cls-1" cx="742.27" cy="284.71" rx="21.6" ry="5.43" transform="translate(-736.27 263.42) rotate(-28.09)"/><ellipse class="cls-1" cx="739.05" cy="277.7" rx="21.6" ry="5.43" transform="translate(-733.35 261.08) rotate(-28.09)"/><ellipse class="cls-1" cx="735.83" cy="270.69" rx="21.6" ry="5.43" transform="translate(-730.43 258.74) rotate(-28.09)"/><ellipse class="cls-1" cx="732.61" cy="263.68" rx="21.6" ry="5.43" transform="translate(-727.51 256.4) rotate(-28.09)"/><ellipse class="cls-1" cx="727.99" cy="257.32" rx="21.6" ry="5.43" transform="translate(-725.06 253.48) rotate(-28.09)"/><ellipse class="cls-1" cx="724.74" cy="252.07" rx="20.83" ry="5.43" transform="translate(-722.97 251.33) rotate(-28.09)"/><ellipse class="cls-1" cx="721.36" cy="246.39" rx="20.06" ry="4.34" transform="translate(-720.69 249.07) rotate(-28.09)"/><ellipse class="cls-1" cx="718.02" cy="241.09" rx="19.34" ry="4.34" transform="translate(-718.59 246.87) rotate(-28.09)"/><ellipse class="cls-1" cx="715.33" cy="237.19" rx="18.52" ry="4.34" transform="translate(-717.07 245.14) rotate(-28.09)"/><ellipse class="cls-1" cx="712.24" cy="233.6" rx="17.21" ry="4.34" transform="translate(-715.74 243.27) rotate(-28.09)"/><ellipse class="cls-1" cx="709.43" cy="229.86" rx="16.21" ry="4.34" transform="translate(-714.32 241.5) rotate(-28.09)"/><ellipse class="cls-1" cx="706.14" cy="226.38" rx="14.67" ry="4.34" transform="translate(-713.07 239.54) rotate(-28.09)"/><ellipse class="cls-1" cx="702.85" cy="222.9" rx="13.13" ry="4.34" transform="translate(-711.82 237.58) rotate(-28.09)"/><ellipse class="cls-1" cx="700.25" cy="220.8" rx="11.64" ry="4.34" transform="translate(-711.13 236.11) rotate(-28.09)"/><ellipse class="cls-1" cx="970.49" cy="449" rx="8.24" ry="38.61" transform="translate(-556.26 994.74) rotate(-63.31)"/><ellipse class="cls-1" cx="975.19" cy="438.99" rx="8.24" ry="36.66" transform="translate(-544.54 993.66) rotate(-63.32)"/><ellipse class="cls-1" cx="978.22" cy="429.43" rx="8.24" ry="34.89" transform="translate(-534.13 991.35) rotate(-63.34)"/><ellipse class="cls-1" cx="982.26" cy="419.47" rx="8.27" ry="33.14" transform="translate(-568.81 931.31) rotate(-59.37)"/><ellipse class="cls-1" cx="985.43" cy="409.62" rx="8.27" ry="31.62" transform="translate(-558.54 929.53) rotate(-59.39)"/><ellipse class="cls-1" cx="986.82" cy="400.89" rx="8.27" ry="30.06" transform="translate(-550.05 926.82) rotate(-59.42)"/><ellipse class="cls-1" cx="991.44" cy="393.76" rx="6.88" ry="29.13" transform="translate(-542.44 926.27) rotate(-59.35)"/><ellipse class="cls-1" cx="997.42" cy="385.93" rx="6.88" ry="29.13" transform="matrix(0.51, -0.86, 0.86, 0.51, -532.78, 927.58)"/><ellipse class="cls-1" cx="1002.31" cy="379.46" rx="6.88" ry="27.42" transform="matrix(0.51, -0.86, 0.86, 0.51, -524.53, 928.97)"/><ellipse class="cls-1" cx="1008.68" cy="373.77" rx="6.88" ry="25.8" transform="translate(-516.16 932.07) rotate(-59.4)"/><ellipse class="cls-1" cx="1012.68" cy="367.03" rx="5.76" ry="23.31" transform="translate(-508.81 931.7) rotate(-59.36)"/><ellipse class="cls-1" cx="1017.67" cy="360.5" rx="5.76" ry="23.31" transform="translate(-500.76 932.79) rotate(-59.36)"/><ellipse class="cls-1" cx="1022.65" cy="353.98" rx="5.76" ry="23.31" transform="translate(-492.7 933.88) rotate(-59.36)"/><ellipse class="cls-1" cx="1027.63" cy="347.45" rx="5.76" ry="23.31" transform="translate(-484.64 934.97) rotate(-59.36)"/><ellipse class="cls-1" cx="1032.62" cy="340.93" rx="5.76" ry="23.31" transform="translate(-476.59 936.05) rotate(-59.36)"/><ellipse class="cls-1" cx="1036.95" cy="334.02" rx="5.76" ry="22.56" transform="translate(-468.52 936.4) rotate(-59.36)"/><ellipse class="cls-1" cx="1040.97" cy="326.93" rx="5.76" ry="21.44" transform="translate(-460.44 936.38) rotate(-59.36)"/><ellipse class="cls-1" cx="1044.34" cy="319.32" rx="5.76" ry="21.15" transform="translate(-452.25 935.54) rotate(-59.36)"/><ellipse class="cls-1" cx="1047.44" cy="313.58" rx="5.76" ry="20.13" transform="translate(-445.57 935.62) rotate(-59.38)"/><ellipse class="cls-1" cx="1050.95" cy="307.52" rx="4.6" ry="19.16" transform="translate(-439.56 934.69) rotate(-59.31)"/><ellipse class="cls-1" cx="1054.07" cy="301.67" rx="4.6" ry="18.19" transform="translate(-432.85 934.67) rotate(-59.32)"/><ellipse class="cls-1" cx="1056.19" cy="297.12" rx="4.6" ry="17.11" transform="translate(-427.7 934.47) rotate(-59.34)"/><ellipse class="cls-1" cx="1057.81" cy="292.4" rx="4.6" ry="15.52" transform="translate(-422.46 933.94) rotate(-59.36)"/><path class="cls-2" d="M1013.63,957.41s15.39-129.25,16.93-143.09,0-96.94,0-109.25-8.81-43.25-13.85-52.32c-7.69-13.84-42.19-40.19-42.19-40.19l-94.75-102.9L872.07,485s-16.92-75.4-16.92-90.79,3.08-32.31,7.69-43.08,10.77-70.78,12.31-93.86,4.62-61.55,4.62-61.55V138.55" transform="translate(-689.65 -119.62)"/><path class="cls-2" d="M1053.64,292.7s-34.46,54.61-41.85,64.24-28.93,35.78-33.55,58.86-25.35,80.81-18.83,104.26,45,61.91,45,61.91,40,33.86,49.24,56.94c5.17,12.93,10.77,50.77,9.23,73.85s-2.31,141.59-2.31,141.59l-2.3,121.53" transform="translate(-689.65 -119.62)"/><path class="cls-2" d="M754.47,180.77c6.82,7.3,17.59,39.61,17.59,56.54S770.52,338.86,769,349.63s26.11,37.18,30.75,47.83,32.34,32.18,33.88,52.19,9.23,41.54,12.31,50.77,65.21,63.81,70.3,71.14,77.41,84.27,86.64,99.66,18.47,40,15.39,58.47-26.16,220-26.16,220v55" transform="translate(-689.65 -119.62)"/><path class="cls-2" d="M982.86,292.7s10.61,49.09,16.84,64.55,38.55,74.62,38.55,74.62l24.62,34.7s31.43,30.49,33.41,49.1,5.06,110.93,6.6,121.7,16.92,332.35,16.92,332.35v122" transform="translate(-689.65 -119.62)"/></svg>