<?xml version="1.0" encoding="utf-8"?>
<!-- Generator: Adobe Illustrator 22.1.0, SVG Export Plug-In . SVG Version: 6.00 Build 0)  -->
<svg version="1.1" xmlns="http://www.w3.org/2000/svg" xmlns:xlink="http://www.w3.org/1999/xlink" x="0px" y="0px"
	 viewBox="0 0 414 584" style="enable-background:new 0 0 414 584;" xml:space="preserve">
<style type="text/css">
	.st0{display:none;}
	.st1{display:inline;}
	.st2{fill:none;stroke:#000000;stroke-width:0.25;stroke-miterlimit:10;}
</style>
<g id="Layer_2" class="st0">
	<g class="st1">
		<g>
			<path d="M158.9,494c-2.2-18.5-5.8-36.7-11-54.6c-5.3-18.2-12.6-35.6-19.9-53.1c-7.5-18.2-13.3-36.4-14.8-56.1
				c-1.5-19.8-0.6-39.9,0.7-59.7c1.3-20,3.4-39.8,5.8-59.7c2.4-19.5,3.4-40.4,10.2-59c3.5-9.7,9-18.6,14.2-27.5
				c5.2-8.8,10.3-17.6,15.5-26.4c10-17.1,19.9-34.4,30.2-51.4c6.2-10.2,13.7-17.2,26-18.3c9.7-0.9,19.8,0.9,29.3,2.9
				c9.9,2.1,19.3,6.1,24.2,15.4c4.6,8.6,4.9,18.9,5.2,28.4c0,0.7,1.1,0.9,1.2,0.2c1.7-10.8-0.8-22.8-5.8-32.5
				c-2.2-4.4-5.2-8.7-9.5-11.3c-5.5-3.4-13.4-3.4-19.6-3.8c-6.6-0.5-13.2-0.3-19.8-0.5c-1.3,0-4.2,0.3-4.4-1.2
				c-0.1-1,4.8-3.5,5.9-4.1c2.3-1.3,4.8-2.3,7.4-3c8.6-2.5,18.2-2.1,27-1.5c9.6,0.6,19.4,2.4,27.9,7.1c8.1,4.6,15.4,12.1,17.3,21.5
				c2,9.6-1.3,20.1-9.8,25.4c0.3,0.3,0.5,0.7,0.8,1c9.3-9,22.5-1.2,27.6,8.2c5.4,10.1,7.1,22.7,8.2,33.9c2.2,23-0.5,46.2-5.2,68.7
				c-2.4,11.5-5.3,22.9-8.5,34.2c-2.8,10.1-4.8,21.6-9.9,30.9c-0.9,1.6-7.9,10.8-9.7,8.2c-0.4-0.5,1.8-5.7,2.1-6.6
				c0.8-2.7,1.4-5.4,1.9-8.1c1.8-9.3,2.1-18.9,1-28.4c-1.1-9.2-3.5-18.3-7.2-26.8c-4.1-9.5-12-18.1-13.8-28.5
				c-0.8-4.8,0.1-10.1,3.2-13.9c3.9-4.9,9.4-3.3,14.4-5.4c6-2.5,7.3-9.7,7.7-15.5c0.5-8.3,0.6-17.9-3.5-25.4
				c-3.1-5.6-9.9-10.1-16.5-9c-6.7,1-9.5,7.1-11.3,12.9c-3,9.5-7.1,17.7-14,25.1c-28.7,30.5-74.1,28.7-111.5,40
				c-12.2,3.7-28.2,8.2-37.1,18.1c-2.3,2.6-5.9,10.1,0.1,9.8c7.7-0.3,16-4.3,23.1-6.8c13.2-4.7,26.4-9.6,39.6-14.4
				c14.7-5.3,29.5-10.6,44.4-15.2c6.8-2.1,13.7-4.1,20.7-5.9c8.6-2.1,18.3-5,27.2-3.1c20.5,4.5,21.8,33,24.6,49.4
				c1.8,10.7,7.3,26.3,0.7,36.2c-4.4,6.7-11.6,7.4-17.8,2.7c-3.8-2.9-7.1-6-11.4-8.1c-12-5.9-31.7-6.9-40.1,5.6
				c-2.3,3.4-0.8,6,3.2,6.2c2.7,0.2,5.6-0.6,8.3-1c4.7-0.8,9.3-1,14-0.5c10.8,1.3,20.8,6.2,28.6,13.8c0.2-0.3,0.4-0.7,0.6-1
				c-11-3.5-22.5-5.9-34-6.9c-5.8-0.5-18-2.1-22.4,3.4c-1.5,2-1.3,4.5,0.1,6.5c2.5,3.4,7.5,3.4,11.2,3.2c7.5-0.4,14.9-2,22.5-1.8
				c9.3,0.2,18.3,2.3,26.9,5.8c0.1-0.4,0.1-0.8,0.2-1.2c-11,0.6-22-0.7-33-0.5c-5.2,0.1-13.6-0.5-18.1,2.9
				c-9.1,6.9,9.4,10.4,12.9,10.9c14.4,1.8,32.2,1,40.5,15.4c11,19.1-0.1,40.8-7.9,58.8c-9.1,21.2-14.5,43.7-16,66.7
				c0,0.5,0.4,0.7,0.8,0.6c3.8-0.5,5.8-3.2,7.2-6.6c2.3-5.4,3.1-11.6,4.5-17.3c3.4-14,6.6-28.1,9.7-42.2c6.1-28.1,12-56.4,16.6-84.8
				c0.9-5.2,1.6-10.8-0.1-16c-1.4-4.3-4.5-7.6-7.5-10.9c-5.3-5.7-7.9-10.5-8.2-18.4c-0.2-4.6,0.2-9.4-1.5-13.7
				c-2.5-6.3-7.9-11.6-13.2-15.6c-4-3-10.6-7.9-16-7.1c-5.6,0.8-3.2,6.5-0.7,9.4c3.7,4.4,8.3,7.8,12,12.3c6.2,7.6,6,16.2,3.3,25.1
				c0.4,0,0.8,0,1.2,0c-1.3-6.8-3.2-15.1-10.6-17.6c-6.2-2.1-10.7,2.1-12.3,7.8c-2.6,9-2.2,19.7-2,29c0.2,10.8,1.2,21.5,3.1,32.1
				c2,10.8,5.2,21.1,8.3,31.6c3.3,11.1,6.4,23.3,2.4,34.6c-1.5,4.3-4.3,8.1-5.5,12.5c-1.2,4.4-0.6,9,0.3,13.4
				c2.4,11.1,5.5,22.1,8.3,33.1c6.5,25.8,12.9,51.6,19.4,77.5c0.2,0.8,1.4,0.4,1.2-0.3c-4.9-19.8-9.9-39.5-14.8-59.3
				c-2.5-9.9-4.9-19.8-7.4-29.6c-1.2-4.8-2.4-9.6-3.6-14.3c-1.3-5.2-3.1-10.6-2.8-16c0.5-8.6,7-15.7,7.9-24.4
				c0.9-8.7-1.2-17.4-3.6-25.7c-5.6-19.4-10.7-38.2-11.7-58.6c-0.5-10.7-0.7-22.1,1.2-32.7c1.2-6.9,6.6-13,13.7-8.3
				c5.1,3.3,6.3,10,7.4,15.5c0.1,0.6,1,0.6,1.2,0c2.4-8.2,3.1-16.6-1.9-24c-1.9-2.9-4.4-5.4-6.9-7.8c-2.7-2.7-7.1-5.8-8.7-9.4
				c-3.9-8.8,10-2.5,12.6-0.9c5.8,3.6,11.4,8.4,15.1,14.2c4.7,7.4,2.2,15.8,4.2,23.9c2,8.3,9.4,12.4,13.5,19.4
				c5.9,10.2,0.6,25.1-1.4,35.9c-2.1,11.3-4.2,22.6-6.5,33.9c-4.5,22.5-9.4,45-14.7,67.4c-1.3,5.4-2.6,10.9-3.9,16.3
				c-0.6,2.3-1,4.7-1.7,7c-0.4,1.4-0.9,2.8-1.6,4.2c-0.2,0.4-3.4,4.8-4.4,4.1c-1.1-0.9,0.2-6.4,0.3-7.4c0.3-3,0.7-5.9,1.1-8.9
				c0.9-5.7,2-11.4,3.3-17c2.6-10.6,6-21,10.3-31c4.1-9.5,8.8-18.8,11.3-28.9c3.4-13.7,2-31.6-10.6-40.4
				c-11.5-8.1-27.8-5.5-40.8-8.7c-2.8-0.7-9.7-2.7-6-7c2.6-3.1,9.5-2.7,13.2-2.9c12.6-0.7,25.1,1,37.7,0.3c0.7,0,0.8-1,0.2-1.2
				c-11.8-4.8-24.5-6.7-37.1-5.4c-5.2,0.6-10.5,1.8-15.9,1.5c-3.2-0.2-8.3-1.5-7.9-5.8c0.1-1.7,1.4-2.7,2.7-3.4
				c6.5-3.6,16.9-1.9,23.9-1.1c9.9,1.2,19.8,3.4,29.3,6.4c0.6,0.2,1-0.6,0.6-1c-10.1-9.8-24-15.3-38.1-14.4
				c-3.2,0.2-16.7,4.2-16.9-0.7c-0.1-2.5,5.5-6.5,7.3-7.5c3.6-2.1,8.2-3,12.3-3.3c8.3-0.7,16.9,1.5,23.8,6.1
				c5.3,3.5,10.1,10.1,17.2,9.2c14.1-1.7,13.1-19.4,11.4-29.5c-1.5-9.2-3.1-18.4-4.6-27.6c-1.1-6.7-2.4-13.4-5-19.7
				c-4.9-12-14.3-18.9-27.5-17.7c-11.2,1-22.5,4.4-33.3,7.6c-12,3.6-23.8,7.6-35.6,11.7c-20.8,7.3-41.4,15.5-62.3,22.4
				c-3.3,1.1-6.6,2.2-10,3c-1.3,0.3-4.7,1.6-5.9,0.9c-2.6-1.4,1-6.6,2.3-8c3.8-4.1,9.1-6.8,14.1-9.2c27.6-13.1,58.2-14.8,87.3-22.8
				c14.3-3.9,28.2-9.8,39.8-19.2c10.9-8.9,17.4-19.6,21.7-32.9c1.4-4.3,3.3-8.7,7.7-10.6c4.6-2,10.2-0.1,13.8,3.1
				c7.1,6.1,7.4,16.6,7.3,25.2c0,3.5-0.1,7.2-1.1,10.6c-1.8,6.5-5.5,8-11.9,9c-5.1,0.8-8.8,3.2-11,8c-5.8,12.8,4.5,24.6,10,35.3
				c8,15.5,11.3,33.2,9.8,50.5c-0.7,8.6-2.7,16.9-5.8,24.9c-0.2,0.5,0.4,0.8,0.8,0.8c12.5-1.8,15.4-17.8,18.2-27.7
				c5-17.4,9.8-34.8,13.3-52.6c3.3-17.2,5.4-34.8,4.8-52.4c-0.5-14.9-1.8-32.3-9.1-45.7c-5.5-10.2-19.7-18-29.6-8.5
				c-0.5,0.5,0.2,1.4,0.8,1c12.6-8,13.8-25.5,5.7-37.2c-10.5-15.2-29.9-19-47.2-19.4c-8.9-0.2-18-0.2-26.3,3.3
				c-1.9,0.8-11.4,4.6-9.9,7.9c1,2.2,7.3,1.4,9,1.4c9.9,0.1,20,0.2,29.7,2.2c17,3.4,22.5,29.9,20.3,44.4c0.4,0.1,0.8,0.1,1.2,0.2
				c-0.4-14.3-1.6-31-14.9-39.4c-6.9-4.4-15.2-5.8-23.1-7c-8-1.3-16.2-2.5-24.3-1.3c-18.6,2.7-25.8,20.6-34.3,35.1
				c-11,18.8-22,37.5-33,56.3c-5.4,9.3-11.3,18.5-15.6,28.4c-3.8,8.7-5.8,18-7.2,27.4c-3.2,20.5-5.5,41.2-7.7,61.8
				c-2.3,21.8-3.9,43.7-4.3,65.7c-0.4,20,0.5,40,6.2,59.3c6.4,21.5,16.8,41.4,24.1,62.6c7.8,22.7,13.2,46.3,16,70.2
				C157.8,494.8,159,494.8,158.9,494L158.9,494z"/>
		</g>
	</g>
	<g class="st1">
		<g>
			<path d="M122.9,495.8c7.1-16.4,8.5-34.6,3.8-51.9c-4.8-17.5-14.8-32.9-24.1-48.3c-20.3-33.7-32.5-70.8-33.3-110.3
				c-0.4-19,0.9-39.5,8.2-57.3c3.6-8.9,9.1-16.5,16.5-22.6c6.6-5.5,14.1-9.7,21.2-14.5c6.2-4.2,12.1-8.9,16.6-14.9
				c5.7-7.6,9.7-16.4,14.6-24.4c10.9-17.6,24.1-33.8,37.3-49.7c3.1-3.7,6.1-7.8,9.7-11c5.1-4.4,11.1-4.4,17.5-4.4
				c12.4,0.1,24.8,0.2,37.2,0.2c9.4,0.1,25.5-2.5,31.4,6.9c7.8,12.3-6.6,23.7-15.4,29.6c-0.7,0.4,0,1.5,0.6,1.1
				c6.6-4.5,14-9.5,16.8-17.3c2.1-6,1.4-13.1-3.9-17.3c-6.2-4.9-15.3-4.1-22.7-4.2c-11.7-0.1-23.5-0.2-35.2-0.2
				c-8.5-0.1-18.7-1.8-25.9,3.7c-7.5,5.7-13.3,14.7-19.2,22c-13.3,16.3-25.8,33.1-36,51.6c-4.9,8.8-10.1,16.7-18.1,23
				c-7.5,5.9-16,10.5-23.7,16.2c-15.1,11.1-22.6,26.8-25.9,45c-7.2,39.1-1.6,80.9,13.7,117.5c8.7,20.7,22,38.7,32.1,58.6
				c11.8,23,15.3,48.2,4.9,72.5C121.5,495.9,122.6,496.5,122.9,495.8L122.9,495.8z"/>
		</g>
	</g>
	<g class="st1">
		<g>
			<path d="M270.1,122.5c3.5,1,7.4,1.6,10.5,3.5c1.6,0.9,2.9,2.3,3.8,3.9c0.6,1.2,1.1,2.6,1.2,4c0,0.9,0.2,3.7-0.8,2.5
				c-0.7-0.9-0.9-2.6-1.4-3.7c-0.7-1.6-1.6-3.2-2.6-4.7c-1.4-2.1-2.9-4.4-5.3-5.3c-0.8-0.3-1.1,0.9-0.3,1.2c3.1,1.1,5.3,5.7,6.6,8.5
				c0.8,1.7,1.1,4.6,2.5,5.9c0.2,0.1,0.4,0.2,0.6,0.2c3.7-1.2,1.3-8.2-0.3-10.3c-3.3-4.5-9.3-5.4-14.3-6.8
				C269.7,121.1,269.4,122.3,270.1,122.5L270.1,122.5z"/>
		</g>
	</g>
	<g class="st1">
		<g>
			<path d="M259.6,128.5c-1.3,3.1,0.8,6.3,2,9.1c1.1,2.5,3,4.6,5.6,5.6c1.1,0.4,4.3,1.5,4.3-0.7c0-0.9-1.8-1.7-2.3-2.1
				c-2-1.4-4.1-2.6-6.2-3.8c-0.7-0.4-1.3,0.7-0.6,1.1c1.8,1,3.7,2,5.4,3.2c0.3,0.2,2.2,1.1,1.4,1.5c-0.4,0.3-2.5-0.9-2.9-1.2
				c-2.2-1.4-3.1-3.4-4.1-5.7c-0.8-2-2.5-4.2-1.5-6.5C261,128.4,259.9,127.7,259.6,128.5L259.6,128.5z"/>
		</g>
	</g>
	<g class="st1">
		<g>
			<path d="M261.9,134.8c2.1,0.3,4.3,0.5,6.5,0.9c1.1,0.2,2,0.4,2.8,1.2c0.8,0.8,2.7,3.7,1.3,4.7c-0.6,0.5,0,1.6,0.6,1.1
				c2.2-1.6,0.6-4.8-0.9-6.4c-2.3-2.5-7.2-2.2-10.4-2.6C261.1,133.5,261.1,134.7,261.9,134.8L261.9,134.8z"/>
		</g>
	</g>
</g>
<g id="Layer_3">
	<path class="st2" d="M122.5,493c2-1.5,24.5-23.5-19.5-95.5s-35.5-161-25.5-173s49-38,58.5-55.5s48.5-80,65-82.5s66-9,73.5,0
		s13,11.5,6,21.5s-29,27-29,27S219,155.5,180,159.5s-67.5,24-67.5,24s-12.5,15.5,7.5,10s63.5-25,73-27s70-27,81-14.5
		s20,47.5,19.5,63.5c-0.3,9.8,0.1,17.3-1.9,21.6c-1.3,2.7-3.5,4.1-7.6,3.9c-10.5-0.5-23.5-16.5-45-15s-17.7,11.4-12.5,12
		c5.8,0.7,20.8-1.7,26.5-0.7c5.7,1,24,10.4,22.5,14.2c-1.5,3.8-19-5.5-28-5s-29.5,0-27.5,5.5s20.5,2,25.5,3.5s27.5,1.5,34,6.5
		s-38.5-1-38.5-1s-12.7-0.7-12.5,4.5c0.1,3.9,25,7.5,36.5,9s22.5,15.5,23,24.5s-2,32.5-10,47.5S261,402,261,402s7.5,12.5,13.5-19.5
		s23.5-120,23.5-120s2-15.5-3.5-21S282,226,281.5,219s-3-21.5-13.5-28s-16-7.5-18-6s1.5,7,4.5,10s14.5,11,14.5,18.5s0.9,25.6-1,26.2
		c-11.7,3.3-8.3-23.7-13-26.7c-4.2-2.7-9,4-9,7.5s-4.5,55.5,1,69.5s14,42.5,12,51.5s-10.5,17.5-9,24.5s29,117,29,117"/>
	<path class="st2" d="M157.5,493.5c0.5-1.5-12-75.5-21.5-90s-26.5-64-26-93.5s5.5-130.5,19-162.5S181.5,50,190.5,41s24-14.5,33-13
		s37,0,44,11.5s7,34.5,7,34.5s8,11.5,6-14.5s-68-26-64.5-35s12.5-9,23.5-9S273,17,283,23s23,19.5,19.5,31.5s-6,17-7.5,19.5
		s-5-7.5,4-7.5s22,8,25.5,19s11,69.5-5,124S298.5,258,296,257s4.5-17.5,4-27s-3-48-17.5-62s3-32,8.5-31s19.5-16.5,12-32
		s-16-20.5-21.5-17.5s-11.5,18.5-18,30s-3.1,16.8-2.8,17.7c0.3,0.9,3.1,5.3,3.9,6c0.8,0.7,4.3,2.8,5.2,1.9c0.9-0.8,0.1-1.9-1.2-2.7
		c-1.3-0.8-5.2-3.6-5.9-3.5"/>
	<path class="st2" d="M261.3,134.2c0,0,7.8,0.3,9,1.3s4,2.7,3.6,4.3c-0.4,1.7-1.1,2.4-1.1,2.4"/>
	<path class="st2" d="M270.2,122.2c0,0,4.2,0.4,7.8,1.7c1.9,0.6,3.6,1.5,4.5,2.7c2.8,3.4,4.5,9.2,3.3,10.7c-1.2,1.4-3.1-5.3-4.4-7.2
		c-1.3-1.9-3.7-5.3-3.7-5.3"/>
</g>
</svg>
