<svg id="Capa_2" data-name="Capa 2" xmlns="http://www.w3.org/2000/svg" viewBox="0 0 854.28 603.51"><defs><style>.cls-1{fill:none;stroke:#fff;stroke-miterlimit:10;}</style></defs><title>maphait</title><path class="cls-1" d="M1063,177s-19-11-20-5,3,12,0,17-19,8-20,0,12,1,12-7,8-10,0-12-37-5-37-5,11,4,0,8-24,7-30,0-14-7-22-8-11-4-12-10-10-14-17-7-11,11-17,9,12,17,0,13-16-13-16-19-17-15-28-15-28-25-38-24-23-5-35-10-41,1-50,0-18,5-29,7-45-13-54-9-31,21-46,25-26,15-35,22-17,16-6,33,30.5,28.5,47.5,21.5,17-22,24-17,12,23,18,19-2-9,16-6,60,20,65,28,28,19,30,24,21-7,23,0,12,16,2,20-3,17-11,15-12-9-14,0,14,7,12,14,6,11-7,14-9,2-9,10,13,29,21,31,26,11,12,13-30-2-36,5-7,14,6,22,28,28,40,32,26,37,32,43,8,11,20,11,50,5,44,19-6,9-7,21,13,29,1,26-11-11-27-8-13,0-34-2-27-8-33,10,9,22-13,26-17-9-38,0-26,4-28,1-26-11-37-7-23,5-38-1-22,2-40-5-29-13-53-14-41,19-52,11-10-10-9-17-15-9-25-6-18,1-30-5-33-5-49-7-10-3-28-14-59-12-74-4-23,0-27,15,5,26,0,41-8,20-1,28,16,32,29,29,23-1,38,0,36,12,50,24,31,22,35,32,4,28,15,28,39,3,40,0-14-12-20-20,17-31,29-37,39-14,45-10,16,14,19,6,16-11,26-8,26,3,25,12,18-1,30-1,69,20,84,20,34,1,46,2,25,10,24,0,28-4,34-8,29,2,29,2-8-13,2-17,42-1,55-1,15,4,34,2,30-2,48-1,45,16,53,19,29,29,37,30,23,1,12-15-22-13-17-29,21-47,21-47-15-1-27-10-33-14-31-24,11-15,0-20-15-22-22-24-2-14,8-14,27,11,34,6,14-32,23-34,28-29,15-44-8-25-25-24-39-12-27-11,18,10,28-5,27-38,36-45,22-19,8-25-32-9-33-16-11-12-2-22,23-3,21-14,11-33,3-42-19-10-21-22a50.77,50.77,0,0,1,2-23Z" transform="translate(-251.88 -98.82)"/></svg>