<?xml version="1.0" encoding="utf-8"?>
<!-- Generator: Adobe Illustrator 22.1.0, SVG Export Plug-In . SVG Version: 6.00 Build 0)  -->
<svg version="1.1" id="Layer_1" xmlns="http://www.w3.org/2000/svg" xmlns:xlink="http://www.w3.org/1999/xlink" x="0px" y="0px"
	 viewBox="0 0 200 200" style="enable-background:new 0 0 200 200;" xml:space="preserve">
<style type="text/css">
	.st0{fill:#FCFCFC;}
	.st1{fill:#010101;}
	.st2{fill:#151822;}
	.st3{fill:#191C17;}
	.st4{fill:#C699E3;}
	.st5{fill:#1E1225;}
	.st6{fill:#C498E0;}
	.st7{fill:#2BF4E6;}
	.st8{fill:#C8BFAF;}
	.st9{fill:#B149B0;}
	.st10{fill:#F3D11F;}
	.st11{fill:#C20E57;}
	.st12{fill:#030505;}
	.st13{fill:#090303;}
	.st14{fill:#A88D08;}
</style>
<g>
	<path class="st0" d="M27.2,32.1c0,48.2,0,96.5,0,144.7c0,1.5-0.2,1.3,1.3,1.3c48.2,0,96.5,0,144.7,0c0,0.1,0.1,0.2-0.1,0.2
		c-0.2,0-0.5,0-0.7,0c-48.2,0-96.4,0-144.5,0c-0.7,0-0.8-0.2-0.8-0.8c0-48.2,0-96.4,0-144.5C27,32.7,26.8,32.3,27.2,32.1z"/>
	<path class="st1" d="M90.6,51.4c2.7-5.6,6.9-9.8,12.5-12.7c9.8-4.9,20.1-6.8,31-6.1c8.4,0.5,15.2,4.3,21.4,9.8
		c6.8,6.1,10.8,13.7,14.3,21.8c4.8,11,6.7,22.7,7.7,34.5c0.7,8.8,0.8,17.6-0.3,26.5c-0.5,3.7-1.3,7.3-3.7,10.4
		c-1.2,1.5-2.6,2.6-4.4,3.2c-3.4,1.2-6.9,2.3-10.6,2.6c-0.4-0.3-1.1,0.5-1.4-0.4c1.2-0.3,0.2-0.7,0-1c-4.2-5-6.9-10.7-8.1-17.2
		c-1.2-6.5-1.4-13.1,0.1-19.6c0.1-0.4,0.2-0.7,0-1.1c-0.1,0-0.1,0-0.1,0c-0.1,0.1-0.2,0.2-0.3,0.3c-4.7,5.2-10.5,9-16.9,11.5
		c-7.8,3.1-15.9,4.3-24.2,3.7c-0.2,0-0.5,0-0.7,0c0,0,0,0,0,0l0-0.1c-0.1-0.4-0.4-0.4-0.7-0.3c-0.1,0-0.1,0-0.1,0
		c0-0.3-0.3-0.4-0.5-0.5c-0.8-0.2-1.6-0.3-2.2-0.7c-0.7-0.6-1.4-0.7-2.2-0.6c-0.2-0.2-0.4-0.3-0.7-0.5c-3.1-1.8-3-4.8,0.3-6.3
		c0.2-0.1,0.5-0.2,0.7-0.3c0.4,0,0.3-0.6,0.6-0.7c0.1,0,0.3,0.1,0.4,0.1c0.1,0.1,0.2,0,0.2-0.1c3.3-1.9,6.8-3.4,10.3-5.1
		c9.4-4.6,17.7-10.8,25.1-18.2c3.4-3.4,6.7-7,9.2-11.2c0.3-0.4,0.7-0.8,0.5-1.4c-0.8-2.8-1-5.7-2.1-8.3c-2.5-6.3-6.1-12-11.3-16.4
		c-4.3-3.6-9.2-5.4-14.9-4.8c-8.5,0.9-16,4.2-23.1,8.8c-2.6,1.7-4.6,4-7.3,5.5c-0.5-0.4-0.2-0.8-0.1-1.2c0.2-0.8,0.9-1.4,0.7-2.3
		c0.1-0.1,0.1-0.3,0.2-0.4C90.4,52.5,90.6,52,90.6,51.4z"/>
	<path class="st2" d="M89.7,53.3c0.2,0.9-0.5,1.5-0.7,2.3c-0.1,0.4-0.4,0.8,0.1,1.2c-0.1,0.3-0.2,0.6-0.3,0.9
		c-2.3,8.4-1.7,16.7,1.6,24.7c1.9,4.5,4.5,8.7,7.7,12.5c-1.1,0-2.2,0-3.2,0.1c-0.3-0.3-0.1-0.4,0.2-0.5c0.4-0.1,0.9,0.1,1.4-0.2
		c-0.1-0.6-0.6-0.9-0.9-1.3c-2.4-3.4-4.4-7-6.1-10.8c-0.1-0.6-0.3-1.2-0.6-1.8c-0.1-0.3-0.2-0.6-0.2-0.9c-1.4-4.6-2.2-9.2-1.7-14
		c0.1-1.1-0.2-1.3-1.2-1.4c-11.8-1.6-23.6-2.9-35.6-1.5c-0.5,0.1-0.9,0-0.8-0.6c0.2-1.9-0.3-3.6-0.5-5.4c-0.3-2.3-1.2-4.5-2.4-6.5
		c-0.1-0.2-0.3-0.7-0.7-0.5c-0.3,0.2-0.2,0.6,0,0.8c0.2,0.4,0.4,0.8,0.4,1.3c0.5,3.7,0.3,7.3-1,10.8c-1.2,3.1-3.9,4.1-6.8,2.5
		c-0.7-0.4-0.8-0.1-1,0.4c-0.6,2-1.2,3.9-1.6,5.9c-0.2,1.2-0.6,2.4-0.6,3.8c2.2-1.3,4.4-1.8,6.8-1.9c3.9-0.1,7.1,1.5,9.1,4.8
		c2,3.2,1.5,6.7-0.4,9.8c-2.3,3.9-8.6,5.5-13.2,3.6c-0.9-0.4-1.7-0.8-2.6-1.2c-0.1,1.2,0.4,2.2,0.5,3.2c0.2,1.3,0.8,2,2.2,1.9
		c0.4,0,1.2-0.2,1.2,0.5c-0.1,0.6-0.8,0.1-1.2,0.2c-0.4,0-1.1-0.3-1.2,0c-0.2,0.8,0.3,1.5,0.6,2.3c0.2,0.6,0.7,0.3,1.1,0.2
		c0.4,0,1-0.4,1.1,0.1c0.1,0.6-0.6,0.5-1,0.6c-0.6,0.1-0.7,0.3-0.4,0.9c1.8,3,3.8,5.8,6.9,7.5c6.8,3.6,13.9,6.1,21.7,5.9
		c0.5,0,1.4-0.3,1.4,0.3c0,0.7-0.9,0.4-1.4,0.4c-0.9,0-1,0.3-0.8,1c0.5,1.7,1,3.3,1.9,4.9c0.1,0.5-0.5,0.7-0.4,1.2
		c-0.5,2.4-1.3,4.7-2.1,7c-1,2.7-2.1,5.3-3.4,7.9c-0.1,0.3-0.7,0.8,0.2,0.9c0.8,0,1.6,0,2.4,0c0.3,0,0.6,0,0.4,0.4
		c-7.1,0.4-14.2,1.6-21.1,3.2c-1.1,0.3-1.7,0.1-2.1-1.1c-0.3-1.2-1-2.4-2.2-3c-1.4-0.8-2.2-0.3-2.4,1.2c-0.4,2.6,0.7,4.8,1.9,7
		c0.9,1.7,1.1,1.8,2.9,1.5c3.5-0.6,7-1.1,10.6-1.4c0.6,0,1.2,0,1.7-0.4c0.2,0,0.4,0,0.6,0c0,2,0.3,3.9,1,5.7
		c0.5,1.3,1.1,1.7,2.5,1.6c0.9-0.1,1.8-0.3,2.7-0.4c5.2-0.9,10.4-1.8,15.7-1.7c1.9,0.1,3.3-0.3,4.3-1.9c0.2,0,0.3-0.1,0.3-0.3l0,0
		c0.2,0.1,0.4,0.2,0.6,0.3c-1.8,2.4-4,4.4-6.5,6c-0.8,0.5-1.5,1.1-2.1,1.8c-0.4,0.5-0.4,1,0.2,1.3c0.5,0.3,1.1,0.5,1.5-0.2
		c0.5-1,1.4-1.6,2.1-2.3c0.3-0.3,0.7-0.6,1.3-0.1c-0.2,0.1-0.3,0.2-0.4,0.3c-1,0.8-2,1.6-2.4,2.8c-0.1,0.3-0.1,0.6,0.1,0.8
		c0.4,0.3,0.4-0.2,0.6-0.3c0.7-0.9,1.6-1.4,2.5-2c0.3-0.2,0.7-0.6,1-0.1c0.3,0.5-0.4,0.6-0.6,0.8c-0.8,0.6-1.7,1-2.3,1.8
		c-0.2,0.2-0.4,0.4-0.2,0.7c0.2,0.3,0.4,0.3,0.7,0.3c0.7,0,1.3-0.3,1.8-0.7c3.5-2.7,6.9-5.5,9.5-9.1c1.9,0.5,3.9,0.2,5.8,0.2
		c0.1,0,0.2-0.2,0.3-0.3c0.2,0,0.3-0.1,0.5-0.1c5.8-0.2,9.7-3.1,12.1-8.4c2.2-4.8,1.9-9.7,1.5-14.7c-0.2-2.9-0.9-5.7-1.3-8.5
		c0.2,0,0.5,0,0.7,0c1,5.1,1.6,10.2,1.6,15.5c0,0.7,0.4,0.7,0.8,0.9c2.3,1.1,4.3,2.4,5.3,4.9c-0.1,0.5-0.1,1-0.2,1.5
		c-0.6-2.7-2.6-4.3-4.9-5.5c-0.7-0.4-1-0.4-1.2,0.6c-0.5,2.7-1.3,5.2-2.7,7.6c-0.3,0.6-0.2,0.8,0.4,0.9c0.5,0.1,1.1,0.2,1.6,0.2
		c0.3,0,0.6,0.1,0.6,0.4c0,0.4-0.4,0.4-0.6,0.3c-0.7-0.1-1.5-0.2-2.2-0.4c-0.4-0.1-0.7-0.2-0.9,0.2c-0.9,1.3-2.1,2.3-3.6,3.4
		c1.9,0.3,3.6,0.4,5.3,0.2c4.2-0.6,7.8-2.7,8.3-7.5c0.1,0.7-0.1,1.5,0.2,2.3c-0.6,2-2,3.4-3.7,4.4c-3.3,1.9-6.8,1.9-10.4,1.3
		c-0.3-0.1-0.6-0.2-1-0.1c-3.3,1.5-6.8,1.4-10.3,1.4c-1.1,0-1.9,0.3-2.6,1.2c-2.5,3.1-5.4,5.6-8.6,7.9c-2,1.4-3.1,1-4.5-0.8
		c-0.3-0.4-0.6-0.5-1-0.6c-0.7-0.1-1.4-0.4-1.6-1.2c-0.2-0.7,0.2-1.3,0.6-1.8c1-1.1,2.3-1.8,3.5-2.7c0.6-0.5,1.3-1,1.9-1.5
		c-0.5-0.5-0.9-0.3-1.4-0.3c-5.4,0.1-10.7,0.8-16,1.8c-0.9,0.2-1.8,0.3-2.8,0.4c-1.4,0.2-2.3-0.4-2.9-1.7c-0.5-1.3-0.9-2.7-1-4
		c-0.1-1-0.3-1.3-1.5-1.2c-3.7,0.4-7.5,0.9-11.2,1.5c-1.7,0.3-2.3,0-3.1-1.6c-0.9-1.8-1.9-3.5-2.2-5.6c-0.1-0.9-0.1-1.9,0.1-2.8
		c0.3-1.4,1.3-2,2.7-1.5c1.6,0.5,2.5,1.7,3.1,3.3c0.3,0.9,0.7,1.3,1.7,1c5.2-1.3,10.5-2.1,15.8-2.7c0.5-0.1,0.9-0.2,1.1-0.8
		c2.5-5,4.5-10.2,6-15.6c0.1-0.5,0.1-0.9-0.1-1.3c-0.7-1.4-1.2-2.9-1.5-4.5c-0.1-0.6-0.4-0.8-1-0.8c-6.4-0.2-12.2-2.5-18-5.1
		c-3.8-1.8-6.4-4.8-8.5-8.3c-0.6-1-1.1-1.1-2.1-0.8c-3.4,1-6.6,2.3-9.6,4c-0.3,0.2-0.6,0.3-0.9,0.5c-0.3,0.1-0.7,0.5-0.9,0
		c-0.2-0.4,0.3-0.5,0.5-0.6c2.8-1.6,5.8-3,8.9-4c0.2-0.1,0.4-0.1,0.6-0.2c0.8-0.3,2.1-0.2,2.3-0.9c0.2-0.7-0.4-1.6-0.6-2.5
		c-0.1-0.6-0.5-0.7-1-0.8c-2-0.3-4-0.2-6-0.2c-0.5,0-0.9,0-1.4,0c-0.3,0-0.6,0-0.6-0.3c0-0.5,0.4-0.4,0.7-0.4c2.3,0,4.6,0,6.9,0.1
		c0.9,0,1-0.2,0.8-1c-0.8-2.7-1-5.4-1-8.2c0-7.6,0.7-15.1,3.4-22.3c1.7-4.4,3.8-8.6,6.3-12.6c0.5-0.8,1.2-1.5,1.9-2.2
		c0.6-0.6,0.9-0.4,1.2,0.2c1.7,2.6,2.7,5.5,3.1,8.5c0.2,1.2,0.5,2.4,0.4,3.6c-0.1,0.7,0.4,0.6,0.8,0.6c8.6-1.1,17.2-0.2,25.8,0.5
		c3.1,0.2,6.2,0.7,9.2,1.2c0.8,0.1,1.1-0.1,1.1-0.9c0.3-2.9,1.1-5.6,2.2-8.3C89.3,53.9,89.5,53.6,89.7,53.3z M41.8,73.9
		c-1.9,0.1-4,0.4-5.9,1.5c-0.6,0.3-1.2,0.7-1.2,1.5c-0.2,3.6-0.4,7.2-0.4,10.8c0,1,0.4,1.6,1.2,2c2.1,1.2,4.3,1.8,6.8,1.6
		c5.8-0.4,9.2-4.1,8.9-9.9C51.1,77.5,46.8,73.8,41.8,73.9z M44.6,50.4c-0.5,0.7-0.9,1.2-1.2,1.8c-1.9,3.3-3.7,6.7-5.1,10.2
		c-0.6,1.5-0.5,1.7,1,2.2c0.3,0.1,0.5,0.2,0.8,0.2c2.1,0.3,3.6-0.8,4.4-3.4c1-2.9,1.1-6,0.9-9.1C45.3,51.8,45.2,51.1,44.6,50.4z"/>
	<path class="st3" d="M115.2,140.5c0.1-0.5,0.1-1,0.2-1.5c0.3,1.7,1.5,2.2,2.9,2.5c6.6,1.6,13.3,1.6,20,1.3
		c6.3-0.3,12.6-0.9,18.9-1.7c0.2,0.9,1,0.1,1.4,0.4c-1.7,0.1-2.8,1-3.9,2.3c-1.8,2.2-4.1,3.8-6.5,5.4c-0.1,0-0.1,0.1-0.2,0.1
		c-0.8,0.4-1.7,0.8-2.6,0.3c-0.9-0.5-0.7-1.4-0.6-2.4c-1.2,0.4-2.3,1-3.4,1.1c-2,0.3-2.5,0-2.3-2.1c-0.9,0.1-1.9,0.3-2.8,0.4
		c-0.7,0.1-1.5,0.2-1.9-0.6c-0.4-0.8,0.1-1.4,0.6-1.9c0.1-0.1,0.1-0.2,0.2-0.2c-0.1-0.3-0.3-0.2-0.5-0.2c-6.1,0.1-12.2-0.1-18.2-2
		c-0.4-0.1-0.6,0-0.6,0.4c-0.1,0.4-0.2,0.7-0.3,1.1c-0.3-0.7-0.1-1.5-0.2-2.3C115.2,140.8,115.2,140.6,115.2,140.5z M155,142.1
		c-0.3,0-0.4,0-0.6,0c-5.3,0.6-10.5,1.1-15.8,1.3c-1.2,0-2.2,0.5-3.1,1.2c-0.3,0.3-0.7,0.6-0.5,1c0.2,0.4,0.6,0.4,1,0.3
		c1.6-0.2,3.1-0.5,4.6-1.2c0.2-0.1,0.5-0.4,0.7-0.1c0.3,0.3-0.1,0.5-0.2,0.7c-0.3,0.3-0.6,0.6-0.9,0.9c-0.3,0.3-0.6,0.7-0.4,1.1
		c0.2,0.5,0.7,0.3,1.1,0.3c1.6-0.2,3-0.8,4.4-1.7c0.3-0.2,0.6-0.8,1.1-0.4c0.4,0.4-0.1,0.7-0.3,1c-0.4,0.8-1,1.7-0.3,2.3
		c0.7,0.7,1.6,0,2.3-0.4c2.2-1.4,4.1-3.1,6-4.9C154.4,143.2,154.8,142.8,155,142.1z"/>
	<path class="st2" d="M90.6,51.4c0,0.6-0.2,1.1-0.7,1.4C90,52.3,90.2,51.8,90.6,51.4z"/>
	<path class="st4" d="M88,149.6c-2.6,3.6-6,6.4-9.5,9.1c-0.5,0.4-1.1,0.7-1.8,0.7c-0.3,0-0.6,0-0.7-0.3c-0.2-0.3,0.1-0.5,0.2-0.7
		c0.6-0.8,1.5-1.2,2.3-1.8c0.3-0.2,0.9-0.3,0.6-0.8c-0.3-0.5-0.7,0-1,0.1c-0.9,0.6-1.8,1.1-2.5,2c-0.1,0.2-0.2,0.6-0.6,0.3
		c-0.3-0.2-0.2-0.5-0.1-0.8c0.4-1.3,1.5-2,2.4-2.8c0.1-0.1,0.2-0.2,0.4-0.3c-0.5-0.5-1-0.2-1.3,0.1c-0.8,0.7-1.6,1.4-2.1,2.3
		c-0.4,0.7-1,0.4-1.5,0.2c-0.6-0.3-0.5-0.8-0.2-1.3c0.6-0.7,1.3-1.3,2.1-1.8c2.5-1.6,4.7-3.6,6.5-6c0.4-0.4,0.8-0.8,1-1.4l0,0
		c0-0.1,0.1-0.1,0.1-0.2c0.1-0.1,0.2-0.2,0.2-0.3c0.7-0.9,1.5-1.8,2.1-2.9c3.2-6.8,5.3-13.9,5.1-21.6c0-0.6,0.3-1.8-0.3-1.7
		c-0.9,0-0.4,1.1-0.4,1.7c0.2,6.7-1.6,12.9-4,19.1c-0.2,0.5-0.3,1.2-1.2,1.2c-5,0.1-10,0.6-14.9,1.6c-0.7,0.1-1-0.1-1.2-0.7
		c-0.6-1.7-0.8-3.4-0.8-5.1c-0.1-4.6,0.8-9,3.1-13c0.5-0.8,0.4-1.3-0.3-1.8c-0.9-0.7-1.7-1.6-2.4-2.5c-0.8-1.5-1.4-3.2-1.9-4.9
		c-0.2-0.7-0.1-1.1,0.8-1c0.5,0,1.4,0.3,1.4-0.4c0-0.6-0.9-0.3-1.4-0.3c-7.8,0.1-15-2.3-21.7-5.9c-3.1-1.7-5.1-4.5-6.9-7.5
		c-0.3-0.5-0.2-0.7,0.4-0.9c0.4-0.1,1.1,0,1-0.6c-0.1-0.5-0.7-0.1-1.1-0.1c-0.4,0-0.9,0.4-1.1-0.2c-0.2-0.8-0.8-1.5-0.6-2.3
		c0.1-0.4,0.8,0,1.2,0c0.4,0,1.1,0.4,1.2-0.2c0.1-0.7-0.7-0.5-1.2-0.5c-1.4,0.1-2-0.6-2.2-1.9c-0.1-1-0.6-2-0.5-3.2
		c0.9,0.4,1.8,0.8,2.6,1.2c4.6,1.9,10.9,0.3,13.2-3.6c1.9-3.2,2.3-6.6,0.4-9.8c-2-3.3-5.2-4.9-9.1-4.8c-2.3,0.1-4.6,0.6-6.8,1.9
		c0-1.4,0.3-2.6,0.6-3.8c0.4-2,1-4,1.6-5.9c0.2-0.5,0.3-0.8,1-0.4c2.8,1.6,5.6,0.6,6.8-2.5c1.3-3.5,1.6-7.1,1-10.8
		c-0.1-0.5-0.2-0.9-0.4-1.3c-0.1-0.3-0.3-0.6,0-0.8c0.4-0.2,0.5,0.2,0.7,0.5c1.2,2,2.1,4.2,2.4,6.5c0.3,1.8,0.8,3.6,0.5,5.4
		c-0.1,0.6,0.3,0.7,0.8,0.6C62,61.1,73.8,62.4,85.6,64c0.9,0.1,1.3,0.4,1.2,1.4c-0.5,4.8,0.3,9.4,1.7,14c0.1,0.3,0.2,0.6,0.2,0.9
		c-0.1,0.1-0.2,0.2-0.3,0.2c-1.1-2.7-3.2-4.5-5.8-5.7c-5.3-2.4-13.3-0.7-15.8,7.8c-1.2,4,0.3,8.5,3.5,10.8c2.5,1.8,5.4,2.3,8.5,2.2
		c5-0.2,9-3.6,10-8.5c0-0.1,0-0.2,0.1-0.2l0,0c0.4-1.2,0.3-2.4,0.2-3.6c0-0.3-0.1-0.7-0.1-1c0.1-0.1,0.3-0.2,0.4-0.2
		c1.7,3.8,3.8,7.4,6.1,10.8c0.3,0.4,0.7,0.8,0.9,1.3c-0.4,0.3-0.9,0.1-1.4,0.2c-0.3,0.1-0.6,0.2-0.2,0.5c0.3,0.2,0.6,0.2,0.9,0.2
		c1.5-0.3,2.4,0.7,3.2,1.6c0.1,0.1,0.3,0.3,0.2,0.5c-0.1,0.3-0.4,0.2-0.6,0.2c-0.5,0-1.1-0.1-1.6-0.2c-0.2,0-0.5-0.1-0.6,0.2
		c-0.1,0.4,0.2,0.4,0.5,0.5c1,0.2,2.1,0.3,3.1,0.3c0.4,0,0.9-0.1,0.8,0.5c-0.5,2.3-1.2,4.5-2.7,6.3c-0.5,0.6-0.8,0.2-0.9-0.3
		c-0.2-0.9-0.5-1.8-0.1-2.7c0.1-0.3,0.6-0.9,0-1.1c-0.7-0.2-0.5,0.6-0.7,0.9c-0.1,0.2-0.2,0.5-0.3,0.8c-0.6,1.5-0.9,3.1-1.9,4.5
		c-0.2,0.3-0.4,0.7-0.8,0.5c-0.3-0.1-0.3-0.5-0.3-0.8c0.1-1,0.2-2.1,0.3-3.1c0-0.2,0-0.5-0.2-0.6c-0.3-0.1-0.4,0.2-0.5,0.3
		c-1.3,2.2-3,4-5.2,5.4c-0.2,0.1-0.5,0.3-0.3,0.6c0.2,0.2,0.4,0.1,0.6,0c1-0.6,1.9-1.3,2.7-2.1c0.6-0.6,1.1-1.2,1.8-1.9
		c0,0.7,0,1.1,0,1.5c0,0.6,0,1.3,0.7,1.5c0.8,0.3,1.2-0.2,1.6-0.8c0.6-0.9,1-1.9,1.5-2.9c0.1,0.1,0.1,0.1,0.2,0.2
		c0.8,1.6,0.9,1.7,2.4,0.6c0.2-0.1,0.3-0.3,0.5-0.1c0.8,0.9,1.9,1.6,2.1,2.9c-0.2,0.1-0.5,0.2-0.7,0.3c-3.3,1.4-3.4,4.4-0.3,6.3
		c0.2,0.1,0.4,0.3,0.7,0.5c1.5,1.1,3.2,1.6,4.9,1.8c0,0.1,0.1,0.1,0.1,0c0.2,0.1,0.5,0.2,0.7,0.3c0,0,0,0.1,0,0.1s0,0,0,0
		c0.4,2.8,1,5.6,1.3,8.5c0.4,5,0.7,9.9-1.5,14.7c-2.4,5.3-6.3,8.2-12.1,8.4c-0.2,0-0.3,0-0.5,0.1c-1.4,0-2.7,0.1-4.1,0.1
		c-0.6,0-0.9-0.1-0.5-0.8c3-4.7,4.9-9.9,6-15.4c0.8-4.1,1.4-8.2,1.5-12.3c0-0.3,0.2-0.8-0.4-0.8c-0.4,0-0.3,0.5-0.3,0.7
		c-0.2,4.2-0.8,8.3-1.6,12.4C93.6,139.3,91.5,144.7,88,149.6z M57.8,66.5c-1.4,0-2.3,0.8-2.6,2.3c-0.7,3.9,2.6,8,5.3,9.4
		c0.3,0.2,0.6,0.3,1,0.1c3.2-1.2,5.9-3.1,7.5-6.2c1.1-2.3-0.2-4.6-2.6-4.8c-1.3-0.1-2.7,0.2-3.7,1.1c-0.8,0.7-1.2,0.5-1.8-0.2
		C60.1,67.3,59.2,66.5,57.8,66.5z M57.3,90.2c-0.6,0.1-1.2,0-1.7,0.3c-1.4,0.6-1.6,1.7-0.4,2.7c0.3,0.3,0.7,0.5,1.1,0.7
		c0.9,0.3,0.7,0.9,0.3,1.5c-0.3,0.5-0.8,0.8-1.3,1.1c-0.9,0.4-1.7,0.4-2.6,0.2c-0.2-0.1-0.5-0.1-0.6,0.2c-0.1,0.3,0.2,0.4,0.4,0.5
		c0.2,0.1,0.5,0.2,0.7,0.2c1.1-0.1,1.2,0.4,1.2,1.3c0,1.7,1.4,3.1,3,3.1c1.4,0,2.6-1.3,2.6-3c0-1,0.2-1.6,1.3-1.4
		c0.3,0,0.7,0,0.6-0.5c-0.1-0.4-0.4-0.3-0.7-0.2c-0.9,0.1-1.8-0.1-2.5-0.7c-0.5-0.4-1.2-0.8-1-1.5c0.2-0.7,0.9-0.3,1.4-0.5
		c0.9-0.4,1.7-0.8,1.7-1.8c0-1-0.8-1.4-1.6-1.7C58.5,90.2,57.9,90.2,57.3,90.2z"/>
	<path class="st0" d="M98.1,94.9c-3.2-3.8-5.8-8-7.7-12.5c-3.4-8-3.9-16.3-1.6-24.7c0.1-0.3,0.2-0.6,0.3-0.9
		c2.7-1.5,4.7-3.8,7.3-5.5c7-4.6,14.5-7.9,23.1-8.8c5.8-0.6,10.7,1.2,14.9,4.8c5.2,4.4,8.8,10.1,11.3,16.4c1.1,2.7,1.3,5.6,2.1,8.3
		c0.2,0.6-0.2,1-0.5,1.4c-2.6,4.1-5.8,7.7-9.2,11.2c-7.4,7.4-15.6,13.6-25.1,18.2c-3.4,1.7-6.9,3.2-10.3,5.1c-0.1,0-0.1,0.1-0.2,0.1
		c-0.1,0-0.3-0.1-0.4-0.1c-0.5-1.1-1.4-1.8-2.2-2.7c-0.2-0.2-0.5-0.4-0.3-0.9c0.9-1.6,1.5-3.3,1.9-5.1c0.5,0.3,0.9,0.5,1.3,0.8
		c0.2,0.1,0.5,0.2,0.6,0c0.2-0.3,0-0.4-0.2-0.6C101.2,98,99.7,96.3,98.1,94.9z M110.7,78c0.9,0,1.8,0,2.7-0.2
		c3.4-0.9,5.7-3.1,7.7-5.9c0.7-1,1.4-2.3,0.7-3.6c-0.7-1.3-2.1-1.5-3.5-1.6c-0.2,0-0.5,0-0.7,0c-2.8,0.3-5.3,1.5-7.5,3.2
		c-1.5,1.1-2.8,2.4-3.7,4.1c-0.9,1.8-0.3,3.1,1.6,3.6C108.8,78,109.7,78,110.7,78z M131.6,51.9c-0.1-0.7-0.1-1.4-0.2-2.1
		c0-0.3-0.1-0.6-0.5-0.5c-0.3,0.1-0.3,0.3-0.3,0.6c0,0.6,0.1,1.2,0.1,1.7c0.1,1.8-0.2,3.5-1.2,5c-2.4,3.9-7.9,4.7-11.3,1.6
		c-0.3-0.3-0.7-0.7-1-1c-0.1-0.1-0.3-0.2-0.5-0.1c-0.3,0.2-0.1,0.4,0,0.6c1.9,2.1,4,3.6,7,3.1C128.7,60.2,131.6,56.8,131.6,51.9z
		 M106,68c0-0.2,0-0.5-0.1-0.9c-0.1-0.5,0.1-1.5-0.6-1.4c-0.7,0.1-0.2,1-0.2,1.5c0.4,3.8-2.1,7.4-5.6,8.1c-3,0.5-5.4-0.6-7.3-2.9
		c-0.2-0.2-0.4-0.7-0.8-0.4c-0.4,0.3,0,0.6,0.2,0.9c2.5,3,5.5,3.9,9,2.8C103.8,74.8,106,71.4,106,68z"/>
	<path class="st0" d="M157.2,141.1c-6.3,0.8-12.6,1.4-18.9,1.7c-6.7,0.3-13.4,0.4-20-1.3c-1.5-0.4-2.7-0.8-2.9-2.5
		c-1-2.5-3.1-3.8-5.3-4.9c-0.4-0.2-0.8-0.2-0.8-0.9c0-5.2-0.6-10.4-1.6-15.5c8.4,0.7,16.5-0.6,24.2-3.7c6.5-2.6,12.2-6.3,16.9-11.5
		c0.1-0.1,0.2-0.2,0.3-0.3c0,0,0.1,0,0.1,0c0.2,0.3,0.1,0.7,0,1.1c-1.5,6.5-1.2,13-0.1,19.6c1.1,6.5,3.9,12.2,8.1,17.2
		C157.4,140.3,158.4,140.8,157.2,141.1z"/>
	<path class="st5" d="M98.1,94.9c1.7,1.5,3.2,3.2,5.2,4.3c0.2,0.1,0.4,0.3,0.2,0.6c-0.2,0.2-0.4,0.2-0.6,0c-0.4-0.2-0.8-0.5-1.3-0.8
		c-0.4,1.9-1,3.6-1.9,5.1c-0.3,0.5,0.1,0.6,0.3,0.9c0.8,0.9,1.7,1.6,2.2,2.7c-0.3,0.1-0.2,0.7-0.6,0.7c-0.2-1.3-1.3-2-2.1-2.9
		c-0.2-0.2-0.3,0-0.5,0.1c-1.5,1-1.6,1-2.4-0.6c0-0.1-0.1-0.1-0.2-0.2c-0.5,1-0.8,2-1.5,2.9c-0.4,0.6-0.9,1.1-1.6,0.8
		c-0.7-0.3-0.8-0.9-0.7-1.5c0-0.4,0-0.8,0-1.5c-0.7,0.7-1.2,1.3-1.8,1.9c-0.8,0.8-1.7,1.6-2.7,2.1c-0.2,0.1-0.4,0.3-0.6,0
		c-0.2-0.3,0-0.5,0.3-0.6c2.2-1.4,3.9-3.2,5.2-5.4c0.1-0.2,0.2-0.4,0.5-0.3c0.3,0.1,0.2,0.4,0.2,0.6c-0.1,1-0.2,2.1-0.3,3.1
		c0,0.3-0.1,0.7,0.3,0.8c0.4,0.2,0.6-0.2,0.8-0.5c0.9-1.4,1.3-3,1.9-4.5c0.1-0.3,0.1-0.5,0.3-0.8c0.2-0.3,0-1.2,0.7-0.9
		c0.6,0.2,0.1,0.8,0,1.1c-0.4,0.9-0.1,1.8,0.1,2.7c0.1,0.5,0.4,0.9,0.9,0.3c1.5-1.9,2.3-4,2.7-6.3c0.1-0.6-0.4-0.5-0.8-0.5
		c-1.1,0-2.1-0.1-3.1-0.3c-0.3,0-0.6-0.1-0.5-0.5c0.1-0.3,0.4-0.2,0.6-0.2c0.5,0,1.1,0.1,1.6,0.2c0.2,0,0.5,0.1,0.6-0.2
		c0.1-0.2-0.1-0.3-0.2-0.5c-0.9-1-1.7-1.9-3.2-1.6c-0.3,0.1-0.6,0.1-0.9-0.2C95.9,94.9,97,94.9,98.1,94.9z"/>
	<path class="st2" d="M106,117.3c-1.8-0.3-3.5-0.8-4.9-1.8c0.8-0.1,1.5,0.1,2.2,0.6c0.6,0.5,1.4,0.5,2.2,0.7
		C105.7,116.9,105.9,117,106,117.3z"/>
	<path class="st2" d="M106.8,117.7c-0.2-0.1-0.5-0.2-0.7-0.3C106.4,117.3,106.7,117.2,106.8,117.7z"/>
	<path class="st5" d="M102.5,107.8c0.1,0,0.1-0.1,0.2-0.1C102.7,107.8,102.6,107.9,102.5,107.8z"/>
	<path class="st6" d="M53.7,144.7c-0.5,0.4-1.1,0.3-1.7,0.4c-3.6,0.2-7.1,0.8-10.6,1.4c-1.8,0.3-2,0.2-2.9-1.5
		c-1.2-2.2-2.3-4.4-1.9-7c0.2-1.6,1-2,2.4-1.2c1.2,0.7,1.8,1.8,2.2,3c0.3,1.2,0.9,1.4,2.1,1.1c7-1.6,14-2.7,21.1-3.2
		c0.2,0,0.4,0,0.6,0c1.1-0.2,1.4,0.2,1.4,1.3c0,1.4,0.2,2.8,0.8,4.1c0.3,0.7,0.1,0.9-0.6,1c-2.1,0.3-4.1,0.8-6.1,1.5
		c-0.8,0.3-1,0.1-1.1-0.7c0-0.6-0.2-1.1-0.5-1.7c-0.6-1.1-1.5-1.8-2.8-1.8c-1.2,0-1.7,1.1-2.1,2.1C53.8,143.8,53.8,144.3,53.7,144.7
		z"/>
	<path class="st6" d="M80.5,148c-1,1.6-2.4,2-4.3,1.9c-5.3-0.1-10.5,0.7-15.7,1.7c-0.9,0.2-1.8,0.3-2.7,0.4c-1.3,0.2-2-0.2-2.5-1.6
		c-0.6-1.8-1-3.7-1-5.7c0.2-0.6,0.4-1.2,0.7-1.7c0.6-1.1,1.4-1.2,2.4-0.5c0.9,0.6,1.2,1.6,1.3,2.6c0.1,1.2,0.5,1.5,1.6,1.2
		c3.5-1.1,7.1-1.7,10.8-2.4c4-0.7,8.1-1,12.1-1.2c0.7,0,0.8,0.2,0.5,0.8c-0.5,0.8-1.1,1.6-1.6,2.4c-0.1,0.2-0.2,0.3-0.2,0.5
		c-0.3,0.4-0.7,0.9-1,1.3c0,0,0,0,0,0C80.7,147.8,80.6,147.9,80.5,148z"/>
	<path class="st7" d="M41.8,73.9c4.9-0.1,9.3,3.5,9.5,7.6c0.2,5.8-3.1,9.5-8.9,9.9c-2.4,0.2-4.7-0.4-6.8-1.6c-0.8-0.5-1.2-1.1-1.2-2
		c-0.1-3.6,0.1-7.2,0.4-10.8c0.1-0.8,0.7-1.2,1.2-1.5C37.9,74.3,40,74,41.8,73.9z M41.6,89.3c2.7,0.1,5.1-1.6,5.8-4.2
		c0.1-0.3,0.3-0.5,0-0.8c-0.2-0.2-0.5,0-0.7,0.1c-1.4,0.4-2.4-0.5-2.1-1.9c0.2-1.1,0.8-1.8,2-1.7c0.8,0,0.8-0.3,0.6-0.9
		c-0.6-1.4-1.6-2.4-2.9-3.1c-3-1.5-6-0.3-7.9,2.9C33.6,84.2,36.3,89.2,41.6,89.3z"/>
	<path class="st6" d="M115.2,140.5c0,0.1,0,0.3,0.1,0.4c-0.5,4.8-4.1,6.9-8.3,7.5c-1.7,0.2-3.4,0.1-5.3-0.2c1.5-1.1,2.7-2,3.6-3.4
		c0.2-0.4,0.5-0.3,0.9-0.2c0.7,0.2,1.4,0.3,2.2,0.4c0.3,0,0.6,0.1,0.6-0.3c0-0.4-0.3-0.4-0.6-0.4c-0.5-0.1-1.1-0.2-1.6-0.2
		c-0.6-0.1-0.8-0.3-0.4-0.9c1.4-2.4,2.2-4.9,2.7-7.6c0.2-0.9,0.5-0.9,1.2-0.6C112.6,136.2,114.5,137.8,115.2,140.5z"/>
	<path class="st5" d="M82,145.9c0.5-0.8,1.1-1.6,1.6-2.4c0.4-0.6,0.2-0.8-0.5-0.8c-4.1,0.2-8.1,0.5-12.1,1.2
		c-3.6,0.6-7.2,1.3-10.8,2.4c-1.1,0.3-1.4,0-1.6-1.2c-0.1-1-0.4-2-1.3-2.6c-1-0.7-1.8-0.6-2.4,0.5c-0.3,0.5-0.5,1.1-0.7,1.7
		c-0.2,0-0.4,0-0.6,0c0.1-0.4,0.2-0.9,0.3-1.3c0.4-1,0.9-2,2.1-2.1c1.2,0,2.2,0.7,2.8,1.8c0.3,0.5,0.5,1.1,0.5,1.7
		c0,0.8,0.3,1,1.1,0.7c2-0.7,4-1.2,6.1-1.5c0.6-0.1,0.9-0.3,0.6-1c-0.6-1.3-0.8-2.7-0.8-4.1c0-1-0.3-1.5-1.4-1.3c-0.2,0-0.4,0-0.6,0
		c0.2-0.4-0.1-0.4-0.4-0.4c-0.8,0-1.6,0-2.4,0c1.3-0.3,2.6-0.2,3.9-0.3c0.6,0,0.8-0.2,0.8-0.8c0.1-4.1,1.1-8,3.1-11.7
		c0.1-0.2,0.4-0.6,0.2-0.7c-0.9-0.7-1.5-1.8-2.6-2.2c0-0.5,0.6-0.7,0.4-1.2c0.7,1,1.5,1.8,2.4,2.5c0.8,0.6,0.8,1.1,0.3,1.8
		c-2.4,4-3.3,8.4-3.1,13c0.1,1.7,0.2,3.5,0.8,5.1c0.2,0.6,0.5,0.9,1.2,0.7c4.9-0.9,9.9-1.5,14.9-1.6c0.9,0,1-0.7,1.2-1.2
		c2.4-6.1,4.2-12.4,4-19.1c0-0.6-0.5-1.7,0.4-1.7c0.6,0,0.3,1.1,0.3,1.7c0.2,7.7-1.8,14.8-5.1,21.6c-0.5,1.1-1.4,1.9-2.1,2.9
		C82.4,146.1,82.2,146,82,145.9z"/>
	<path class="st8" d="M44.6,50.4c0.6,0.7,0.7,1.4,0.8,2.1c0.2,3.1,0.1,6.1-0.9,9.1c-0.8,2.6-2.3,3.6-4.4,3.4c-0.3,0-0.5-0.1-0.8-0.2
		c-1.5-0.5-1.6-0.8-1-2.2c1.4-3.6,3.2-6.9,5.1-10.2C43.7,51.6,44.2,51.1,44.6,50.4z"/>
	<path class="st6" d="M66.9,121.5c1.2,0.4,1.7,1.5,2.6,2.2c0.2,0.2-0.1,0.5-0.2,0.7c-2,3.6-3,7.5-3.1,11.7c0,0.6-0.2,0.8-0.8,0.8
		c-1.3,0.1-2.6,0-3.9,0.3c-0.9-0.2-0.3-0.6-0.2-0.9c1.3-2.6,2.4-5.2,3.4-7.9C65.6,126.2,66.4,123.9,66.9,121.5z"/>
	<path class="st5" d="M88,149.6c3.5-4.9,5.6-10.3,6.8-16.1c0.8-4.1,1.4-8.2,1.6-12.4c0-0.3-0.1-0.7,0.3-0.7c0.6,0,0.4,0.5,0.4,0.8
		c-0.1,4.2-0.7,8.2-1.5,12.3c-1.1,5.5-3,10.6-6,15.4c-0.4,0.7-0.1,0.8,0.5,0.8c1.4,0,2.7-0.1,4.1-0.1c-0.1,0.1-0.2,0.3-0.3,0.3
		C91.9,149.8,90,150.1,88,149.6z"/>
	<path class="st5" d="M80.7,147.6c0.3-0.4,0.7-0.9,1-1.3c0.2,0.1,0.3,0.2,0.5,0.3c-0.1,0.6-0.6,1-1,1.4
		C81.1,147.9,80.9,147.8,80.7,147.6z"/>
	<path class="st9" d="M88.5,80.5c0.1-0.1,0.2-0.2,0.3-0.2c0.3,0.5,0.5,1.1,0.6,1.8c-0.1,0.1-0.3,0.2-0.4,0.2
		C88.8,81.7,88.7,81.1,88.5,80.5z"/>
	<path class="st5" d="M80.5,148c0.1-0.1,0.2-0.2,0.3-0.3C80.7,147.8,80.6,147.9,80.5,148z"/>
	<path class="st10" d="M155,142.1c-0.2,0.7-0.6,1.1-1,1.4c-1.9,1.8-3.8,3.5-6,4.9c-0.7,0.5-1.6,1.1-2.3,0.4
		c-0.7-0.7-0.1-1.6,0.3-2.3c0.2-0.3,0.7-0.6,0.3-1c-0.4-0.4-0.8,0.2-1.1,0.4c-1.3,0.9-2.7,1.6-4.4,1.7c-0.4,0-0.9,0.3-1.1-0.3
		c-0.2-0.5,0.1-0.8,0.4-1.1c0.3-0.3,0.6-0.6,0.9-0.9c0.2-0.2,0.5-0.3,0.2-0.7c-0.2-0.3-0.5,0-0.7,0.1c-1.4,0.7-3,1.1-4.6,1.2
		c-0.4,0-0.9,0.1-1-0.3c-0.2-0.5,0.2-0.8,0.5-1c0.9-0.8,1.9-1.2,3.1-1.2c5.3-0.2,10.6-0.7,15.8-1.3
		C154.5,142.1,154.7,142.1,155,142.1z"/>
	<path class="st2" d="M88.5,80.5c0.2,0.6,0.3,1.2,0.5,1.8c0,0.3,0.1,0.7,0.1,1c-0.1,1.2-0.1,2.4-0.2,3.6c0,0,0,0,0,0
		c0,0.1,0,0.2-0.1,0.2c-1,4.9-5,8.2-10,8.5c-3.1,0.1-6-0.4-8.5-2.2c-3.2-2.3-4.6-6.8-3.5-10.8c2.5-8.5,10.4-10.2,15.8-7.8
		C85.2,76,87.3,77.8,88.5,80.5z M77.8,94.9c3.7,0,6.1-1.1,8.1-3.3c3.4-3.9,3.4-10.2,0.1-13.6c-5-5.2-14.1-4.5-17.6,2.7
		c-2.1,4.2-0.9,9.9,2.6,12.2C73,94.4,75.3,95.1,77.8,94.9z"/>
	<path class="st11" d="M57.8,66.5c1.4,0,2.3,0.8,3.1,1.8c0.6,0.7,1,0.9,1.8,0.2c1-0.9,2.3-1.2,3.7-1.1c2.4,0.1,3.7,2.5,2.6,4.8
		c-1.5,3.1-4.3,5-7.5,6.2c-0.4,0.1-0.7,0-1-0.1c-2.7-1.4-6-5.5-5.3-9.4C55.5,67.3,56.4,66.5,57.8,66.5z M55.8,69.8
		c0.3,3.3,2,5.7,4.7,7.5c0.3,0.2,0.6,0.5,1,0.3c2.6-1.2,5-2.7,6.6-5.2c0.7-1.1,1-2.3,0.1-3.5c-0.9-1-2-1.1-3.3-0.7
		c-1,0.3-1.9,0.8-2.5,1.6c-0.5,0.6-0.9,0.7-1.3,0c-0.4-0.7-0.9-1.4-1.6-1.9c-0.8-0.5-1.6-1-2.6-0.4C56,68,56,69,55.8,69.8z"/>
	<path class="st5" d="M57.3,90.2c0.6,0.1,1.2,0,1.8,0.2c0.8,0.3,1.7,0.7,1.6,1.7c0,1-0.9,1.5-1.7,1.8c-0.5,0.2-1.2-0.2-1.4,0.5
		c-0.2,0.7,0.6,1.1,1,1.5c0.7,0.7,1.5,0.9,2.5,0.7c0.2,0,0.6-0.1,0.7,0.2c0.1,0.5-0.4,0.5-0.6,0.5c-1.1-0.1-1.3,0.5-1.3,1.4
		c0,1.7-1.2,3-2.6,3c-1.6,0-3-1.4-3-3.1c0-0.9-0.2-1.5-1.2-1.3c-0.2,0-0.5-0.1-0.7-0.2C52.2,97.1,52,97,52,96.7
		c0.1-0.3,0.4-0.2,0.6-0.2c0.9,0.2,1.7,0.2,2.6-0.2c0.5-0.3,1-0.6,1.3-1.1c0.4-0.6,0.5-1.1-0.3-1.5c-0.4-0.1-0.7-0.4-1.1-0.7
		c-1.2-1-1-2.1,0.4-2.7C56.1,90.2,56.7,90.2,57.3,90.2z M56.6,96.5c-0.9,0.5-1.8,0.8-1.5,2c0.2,1.1,0.5,2.1,1.6,2.5
		c0.9,0.3,1.9-0.3,2.3-1.2c0.5-1.5,0.1-2.8-0.9-3.2c-0.4-0.2-0.5,0.1-0.5,0.4c0,0.4,0,0.9-0.1,1.3c-0.1,0.2-0.2,0.5-0.6,0.5
		c-0.3-0.1-0.2-0.4-0.3-0.6C56.6,97.5,56.6,97.1,56.6,96.5z M57.4,90.9c-0.6,0-1.2,0-1.7,0.3c-0.5,0.3-0.6,0.7-0.2,1.1
		c0.8,1,3,1.3,4,0.5c0.3-0.2,0.5-0.5,0.5-0.9c0-0.5-0.3-0.7-0.7-0.8C58.6,91.1,58,90.9,57.4,90.9z"/>
	<path class="st9" d="M88.9,87c0.1-1.2,0.1-2.4,0.2-3.6C89.3,84.5,89.4,85.8,88.9,87z"/>
	<path class="st2" d="M82.2,146.6c-0.2-0.1-0.3-0.2-0.5-0.3c0.1-0.2,0.2-0.3,0.2-0.5c0.2,0.1,0.4,0.2,0.5,0.3
		c-0.1,0.1-0.2,0.2-0.2,0.3C82.3,146.5,82.2,146.5,82.2,146.6L82.2,146.6z"/>
	<path class="st9" d="M88.9,87.2c0-0.1,0-0.2,0.1-0.2C88.9,87.1,88.9,87.2,88.9,87.2z"/>
	<path class="st5" d="M82.2,146.6c0-0.1,0-0.1,0.1-0.2C82.3,146.5,82.3,146.6,82.2,146.6z"/>
	<path class="st3" d="M110.7,78c-0.9-0.1-1.9,0-2.8-0.3c-1.9-0.5-2.6-1.8-1.6-3.6c0.9-1.7,2.2-3,3.7-4.1c2.2-1.7,4.7-2.9,7.5-3.2
		c0.2,0,0.5-0.1,0.7,0c1.4,0.1,2.8,0.2,3.5,1.6c0.7,1.3,0.1,2.5-0.7,3.6c-1.9,2.7-4.3,5-7.7,5.9C112.5,78.1,111.6,78,110.7,78z
		 M106.7,75.2c-0.1,1.2,0.3,1.7,1.8,2c4.7,0.9,10.4-2,12.3-6.5c0.6-1.5,0.4-2.2-1.1-2.9c-0.7-0.3-1.5-0.3-2.3-0.2
		c-2.5,0.3-4.7,1.3-6.7,2.8C109.1,71.7,107.4,73,106.7,75.2z"/>
	<path class="st3" d="M131.6,51.9c0,4.9-2.9,8.3-7.7,9c-3,0.4-5.1-1.1-7-3.1c-0.2-0.2-0.3-0.4,0-0.6c0.2-0.2,0.4-0.1,0.5,0.1
		c0.3,0.3,0.7,0.6,1,1c3.3,3.1,8.9,2.3,11.3-1.6c0.9-1.5,1.3-3.2,1.2-5c0-0.6-0.1-1.2-0.1-1.7c0-0.2,0-0.5,0.3-0.6
		c0.4-0.1,0.4,0.2,0.5,0.5C131.5,50.5,131.5,51.2,131.6,51.9z"/>
	<path class="st3" d="M106,68c0,3.4-2.2,6.8-5.2,7.7c-3.5,1.1-6.5,0.1-9-2.8c-0.2-0.2-0.6-0.6-0.2-0.9c0.4-0.3,0.6,0.2,0.8,0.4
		c1.9,2.3,4.3,3.4,7.3,2.9c3.5-0.6,6-4.2,5.6-8.1c-0.1-0.5-0.5-1.4,0.2-1.5c0.6-0.1,0.4,0.9,0.6,1.4C106,67.5,106,67.8,106,68z"/>
	<path class="st12" d="M41.6,89.3c-5.2-0.1-7.9-5.1-5.3-9.6c1.9-3.3,5-4.4,7.9-2.9c1.3,0.7,2.3,1.7,2.9,3.1c0.3,0.6,0.3,0.9-0.6,0.9
		c-1.1,0-1.8,0.6-2,1.7c-0.3,1.5,0.7,2.3,2.1,1.9c0.3-0.1,0.5-0.3,0.7-0.1c0.2,0.2,0,0.5,0,0.8C46.6,87.7,44.3,89.4,41.6,89.3z"/>
	<path class="st7" d="M77.8,94.9c-2.5,0.1-4.8-0.6-6.9-1.9c-3.5-2.3-4.7-8-2.6-12.2c3.6-7.2,12.6-7.9,17.6-2.7
		c3.3,3.4,3.3,9.7-0.1,13.6C83.9,93.9,81.5,94.9,77.8,94.9z M76.8,93c0.8,0,1.6-0.2,2.5-0.4c3.9-0.9,6.4-5,5.7-9.1
		c-0.8-4.6-5.1-6.4-8.3-6.1c-2.7,0.3-5.1,2.3-5.6,4.4c-0.2,0.8-0.2,1.2,0.8,1c1-0.3,1.7,0.1,2.1,1c0.4,0.8,0,2.4-0.7,3
		c-0.7,0.5-1.6,0.6-2.3-0.1c-0.2-0.2-0.4-0.6-0.8-0.3C69.9,86.6,70,87,70,87.3C70.3,90.8,72.9,93.1,76.8,93z"/>
	<path class="st13" d="M55.8,69.8C56,69,56,68,56.9,67.5c1-0.6,1.7-0.1,2.6,0.4c0.7,0.5,1.2,1.2,1.6,1.9c0.4,0.7,0.7,0.7,1.3,0
		c0.6-0.8,1.5-1.2,2.5-1.6c1.3-0.4,2.4-0.3,3.3,0.7c1,1.1,0.6,2.4-0.1,3.5c-1.6,2.5-3.9,4-6.6,5.2c-0.4,0.2-0.7-0.1-1-0.3
		C57.8,75.5,56.2,73.1,55.8,69.8z"/>
	<path class="st11" d="M56.6,96.5c0,0.6,0,1.1,0,1.5c0,0.2,0,0.5,0.3,0.6c0.3,0.1,0.5-0.2,0.6-0.5c0.1-0.4,0.1-0.8,0.1-1.3
		c0-0.3,0.1-0.5,0.5-0.4c1.1,0.4,1.4,1.7,0.9,3.2c-0.3,1-1.3,1.6-2.3,1.2c-1.1-0.4-1.4-1.4-1.6-2.5C54.8,97.2,55.7,97,56.6,96.5z"/>
	<path class="st9" d="M57.4,90.9c0.6,0,1.2,0.1,1.8,0.3c0.4,0.1,0.7,0.3,0.7,0.8c0,0.4-0.2,0.7-0.5,0.9c-1,0.8-3.2,0.5-4-0.5
		c-0.4-0.5-0.3-0.9,0.2-1.1C56.2,91,56.8,90.9,57.4,90.9z"/>
	<path class="st10" d="M106.7,75.2c0.7-2.1,2.4-3.5,4.1-4.8c2-1.5,4.2-2.5,6.7-2.8c0.8-0.1,1.5-0.1,2.3,0.2c0.1,0.6-0.1,1.2-0.4,1.7
		c-0.6,1-1.3,2.1-2,3.1C115.2,76.1,109.7,76.6,106.7,75.2z"/>
	<path class="st14" d="M106.7,75.2c3,1.4,8.5,1,10.7-2.6c0.6-1.1,1.3-2.1,2-3.1c0.3-0.5,0.5-1.1,0.4-1.7c1.5,0.7,1.8,1.4,1.1,2.9
		c-1.9,4.4-7.6,7.4-12.3,6.5C107,76.9,106.6,76.4,106.7,75.2z"/>
	<path class="st12" d="M76.8,93c-3.9,0.1-6.5-2.2-6.8-5.8c0-0.3-0.2-0.7,0.1-0.9c0.4-0.3,0.6,0.1,0.8,0.3c0.8,0.6,1.6,0.6,2.3,0.1
		c0.8-0.6,1.1-2.2,0.7-3c-0.4-0.9-1.1-1.3-2.1-1c-1,0.3-1-0.2-0.8-1c0.5-2.1,3-4.1,5.6-4.4c3.2-0.4,7.5,1.4,8.3,6.1
		c0.7,4.1-1.8,8.2-5.7,9.1C78.4,92.8,77.6,93.1,76.8,93z"/>
</g>
</svg>
